<?xml version="1.0" encoding="UTF-8" standalone="no"?><!DOCTYPE svg PUBLIC "-//W3C//DTD SVG 1.1//EN" "http://www.w3.org/Graphics/SVG/1.1/DTD/svg11.dtd"><svg width="100%" height="100%" viewBox="0 0 101 101" version="1.1" xmlns="http://www.w3.org/2000/svg" xmlns:xlink="http://www.w3.org/1999/xlink" xml:space="preserve" xmlns:serif="http://www.serif.com/" style="fill-rule:evenodd;clip-rule:evenodd;stroke-linejoin:round;stroke-miterlimit:2;"><rect id="_68---conflict" serif:id="68 - conflict" x="0.72" y="0.208" width="100" height="100" style="fill:none;"/><g><path d="M22.147,25.405c-0,6.242 5.068,11.31 11.31,11.31c6.242,-0 11.31,-5.068 11.31,-11.31c-0,-6.242 -5.068,-11.31 -11.31,-11.31c-6.242,-0 -11.31,5.068 -11.31,11.31Zm2.778,-0c-0,-4.709 3.823,-8.532 8.532,-8.532c4.709,-0 8.532,3.823 8.532,8.532c-0,4.709 -3.823,8.532 -8.532,8.532c-4.709,-0 -8.532,-3.823 -8.532,-8.532Z"/><path d="M33.457,86.32c6.242,0 11.31,-5.068 11.31,-11.31c-0,-6.242 -5.068,-11.31 -11.31,-11.31c-6.242,0 -11.31,5.068 -11.31,11.31c-0,6.242 5.068,11.31 11.31,11.31Zm-0,-2.778c-4.709,0 -8.532,-3.823 -8.532,-8.532c-0,-4.709 3.823,-8.532 8.532,-8.532c4.709,0 8.532,3.823 8.532,8.532c-0,4.709 -3.823,8.532 -8.532,8.532Z"/><path d="M67.982,68.684c6.242,-0 11.31,-5.068 11.31,-11.31c0,-6.242 -5.068,-11.31 -11.31,-11.31c-6.242,-0 -11.31,5.068 -11.31,11.31c0,6.242 5.068,11.31 11.31,11.31Zm0,-2.778c-4.709,-0 -8.532,-3.823 -8.532,-8.532c0,-4.709 3.823,-8.532 8.532,-8.532c4.709,-0 8.532,3.823 8.532,8.532c0,4.709 -3.823,8.532 -8.532,8.532Z"/><path d="M32.068,35.326c-0,7.12 2.377,12.334 6.18,16.034c0.549,0.535 1.429,0.522 1.964,-0.027c0.534,-0.549 0.522,-1.43 -0.027,-1.964c-3.325,-3.235 -5.339,-7.818 -5.339,-14.043c-0,-0.767 -0.623,-1.389 -1.389,-1.389c-0.767,-0 -1.389,0.622 -1.389,1.389Z"/><path d="M44.332,59.737c2.023,-3.619 2.922,-7.859 2.945,-12.361c0.004,-0.766 -0.615,-1.392 -1.382,-1.396c-0.767,-0.004 -1.392,0.616 -1.396,1.382c-0.02,4.011 -0.789,7.796 -2.591,11.019c-0.375,0.67 -0.135,1.516 0.534,1.891c0.669,0.374 1.516,0.134 1.89,-0.535Z"/><path d="M49.425,57.404c2.7,0.738 5.587,1.176 8.552,1.356c0.765,0.047 1.424,-0.537 1.471,-1.302c0.046,-0.765 -0.538,-1.424 -1.303,-1.471c-2.769,-0.167 -5.465,-0.573 -7.987,-1.263c-0.74,-0.202 -1.504,0.234 -1.706,0.974c-0.202,0.739 0.234,1.504 0.973,1.706Z"/><path d="M32.068,35.326l-0,29.763c-0,0.767 0.622,1.389 1.389,1.389c0.766,0 1.389,-0.622 1.389,-1.389l-0,-29.763c-0,-0.767 -0.623,-1.389 -1.389,-1.389c-0.767,-0 -1.389,0.622 -1.389,1.389Z"/></g></svg>