<?xml version="1.0" encoding="UTF-8" standalone="no"?><!DOCTYPE svg PUBLIC "-//W3C//DTD SVG 1.1//EN" "http://www.w3.org/Graphics/SVG/1.1/DTD/svg11.dtd"><svg width="100%" height="100%" viewBox="0 0 100 100" version="1.1" xmlns="http://www.w3.org/2000/svg" xmlns:xlink="http://www.w3.org/1999/xlink" xml:space="preserve" xmlns:serif="http://www.serif.com/" style="fill-rule:evenodd;clip-rule:evenodd;stroke-linejoin:round;stroke-miterlimit:2;"><rect id="_73---sort" serif:id="73 - sort" x="0" y="0" width="100" height="100" style="fill:none;"/><g><g><path d="M75.935,32.692l-4.396,0c-0.819,0 -1.484,0.665 -1.484,1.484c0,0.819 0.665,1.483 1.484,1.483l4.396,0c0.818,0 1.483,-0.664 1.483,-1.483c0,-0.819 -0.665,-1.484 -1.483,-1.484Z"/><path d="M28.462,56.429l-4.396,-0c-0.818,-0 -1.483,0.664 -1.483,1.483c-0,0.819 0.665,1.484 1.483,1.484l4.396,-0c0.819,-0 1.484,-0.665 1.484,-1.484c-0,-0.819 -0.665,-1.483 -1.484,-1.483Z"/><path d="M82.528,44.56l-17.583,0c-0.818,0 -1.483,0.665 -1.483,1.484c-0,0.819 0.665,1.483 1.483,1.483l17.583,0c0.819,0 1.483,-0.664 1.483,-1.483c0,-0.819 -0.664,-1.484 -1.483,-1.484Z"/><path d="M35.055,64.341l-17.582,-0c-0.819,-0 -1.484,0.664 -1.484,1.483c0,0.819 0.665,1.484 1.484,1.484l17.582,-0c0.819,-0 1.484,-0.665 1.484,-1.484c-0,-0.819 -0.665,-1.483 -1.484,-1.483Z"/><path d="M89.121,56.429l-30.769,-0c-0.819,-0 -1.483,0.664 -1.483,1.483c-0,0.819 0.664,1.484 1.483,1.484l30.769,-0c0.819,-0 1.484,-0.665 1.484,-1.484c-0,-0.819 -0.665,-1.483 -1.484,-1.483Z"/><path d="M41.649,44.56l-30.769,0c-0.819,0 -1.484,0.665 -1.484,1.484c0,0.819 0.665,1.483 1.484,1.483l30.769,0c0.819,0 1.483,-0.664 1.483,-1.483c0,-0.819 -0.664,-1.484 -1.483,-1.484Z"/><path d="M78.132,36.648l-8.791,0c-0.819,0 -1.483,0.665 -1.483,1.484c-0,0.819 0.664,1.483 1.483,1.483l8.791,0c0.819,0 1.484,-0.664 1.484,-1.483c-0,-0.819 -0.665,-1.484 -1.484,-1.484Z"/><path d="M30.66,32.692l-8.791,0c-0.819,0 -1.484,0.665 -1.484,1.484c0,0.819 0.665,1.483 1.484,1.483l8.791,0c0.819,0 1.483,-0.664 1.483,-1.483c0,-0.819 -0.664,-1.484 -1.483,-1.484Z"/><path d="M84.726,48.516l-21.978,0c-0.819,0 -1.484,0.665 -1.484,1.484c0,0.819 0.665,1.484 1.484,1.484l21.978,-0c0.818,-0 1.483,-0.665 1.483,-1.484c0,-0.819 -0.665,-1.484 -1.483,-1.484Z"/><path d="M37.253,52.473l-21.978,-0c-0.819,-0 -1.483,0.664 -1.483,1.483c-0,0.819 0.664,1.484 1.483,1.484l21.978,-0c0.819,-0 1.484,-0.665 1.484,-1.484c-0,-0.819 -0.665,-1.483 -1.484,-1.483Z"/><path d="M91.319,60.385l-35.165,-0c-0.818,-0 -1.483,0.664 -1.483,1.483c-0,0.819 0.665,1.484 1.483,1.484l35.165,-0c0.819,-0 1.484,-0.665 1.484,-1.484c-0,-0.819 -0.665,-1.483 -1.484,-1.483Z"/><path d="M43.847,60.385l-35.165,-0c-0.819,-0 -1.484,0.664 -1.484,1.483c0,0.819 0.665,1.484 1.484,1.484l35.165,-0c0.818,-0 1.483,-0.665 1.483,-1.484c0,-0.819 -0.665,-1.483 -1.483,-1.483Z"/><path d="M80.33,40.604l-13.187,0c-0.818,0 -1.483,0.665 -1.483,1.484c-0,0.819 0.665,1.483 1.483,1.483l13.187,0c0.819,0 1.484,-0.664 1.484,-1.483c-0,-0.819 -0.665,-1.484 -1.484,-1.484Z"/><path d="M32.858,48.516l-13.187,0c-0.819,0 -1.484,0.665 -1.484,1.484c0,0.819 0.665,1.484 1.484,1.484l13.187,-0c0.818,-0 1.483,-0.665 1.483,-1.484c0,-0.819 -0.665,-1.484 -1.483,-1.484Z"/><path d="M86.924,52.473l-26.374,-0c-0.819,-0 -1.484,0.664 -1.484,1.483c0,0.819 0.665,1.484 1.484,1.484l26.374,-0c0.818,-0 1.483,-0.665 1.483,-1.484c0,-0.819 -0.665,-1.483 -1.483,-1.483Z"/><path d="M39.451,40.604l-26.374,0c-0.818,0 -1.483,0.665 -1.483,1.484c-0,0.819 0.665,1.483 1.483,1.483l26.374,0c0.819,0 1.484,-0.664 1.484,-1.483c-0,-0.819 -0.665,-1.484 -1.484,-1.484Z"/><path d="M93.517,64.341l-39.561,-0c-0.818,-0 -1.483,0.664 -1.483,1.483c-0,0.819 0.665,1.484 1.483,1.484l39.561,-0c0.819,-0 1.483,-0.665 1.483,-1.484c0,-0.819 -0.664,-1.483 -1.483,-1.483Z"/><path d="M46.044,36.648l-39.56,0c-0.819,0 -1.484,0.665 -1.484,1.484c0,0.819 0.665,1.483 1.484,1.483l39.56,0c0.819,0 1.484,-0.664 1.484,-1.483c-0,-0.819 -0.665,-1.484 -1.484,-1.484Z"/></g></g></svg>