<?xml version="1.0" encoding="UTF-8" standalone="no"?><!DOCTYPE svg PUBLIC "-//W3C//DTD SVG 1.1//EN" "http://www.w3.org/Graphics/SVG/1.1/DTD/svg11.dtd"><svg width="100%" height="100%" viewBox="0 0 100 100" version="1.1" xmlns="http://www.w3.org/2000/svg" xmlns:xlink="http://www.w3.org/1999/xlink" xml:space="preserve" xmlns:serif="http://www.serif.com/" style="fill-rule:evenodd;clip-rule:evenodd;stroke-linejoin:round;stroke-miterlimit:2;"><rect id="_16---scroll" serif:id="16 - scroll" x="0" y="0" width="100" height="100" style="fill:none;"/><g><path d="M26.548,49.257l9.497,0l0,-12.535c0,-2.145 -1.741,-3.886 -3.885,-3.886c-2.144,0 -3.885,1.741 -3.885,3.886l-0,8.65c-0,1.54 -0.667,2.926 -1.727,3.885Zm-9.123,-35.613c1.06,0.959 1.727,2.345 1.727,3.886c-0,-0 -0,27.842 -0,27.842c-0,2.144 1.741,3.885 3.885,3.885c2.144,0 3.885,-1.741 3.885,-3.885l0,-8.65c0,-2.891 2.347,-5.238 5.238,-5.238l12.196,-0l0,-13.954c0,-2.145 -1.741,-3.886 -3.885,-3.886l-23.046,0Zm0.316,3.209c-0.321,-1.822 -1.913,-3.209 -3.827,-3.209c-1.913,0 -3.506,1.387 -3.826,3.209l7.653,0Z"/><path d="M44.794,68.449l9.497,0l0,-12.535c0,-2.145 -1.741,-3.886 -3.885,-3.886c-2.144,0 -3.885,1.741 -3.885,3.886l-0,8.65c-0,1.541 -0.667,2.927 -1.727,3.885Z"/><path d="M76.963,52.028l-23.046,0c1.06,0.959 1.727,2.345 1.727,3.886l-0,26.556c-0,2.145 1.741,3.886 3.885,3.886c2.144,-0 3.885,-1.741 3.885,-3.886c0,-0.373 0.303,-0.676 0.676,-0.676l16.758,0l0,-25.88c0,-2.145 -1.741,-3.886 -3.885,-3.886Zm-12.24,31.119c-0.163,1.267 -0.781,2.393 -1.683,3.209l23.046,-0c1.913,-0 3.506,-1.387 3.826,-3.209l-25.189,-0Z"/><path d="M35.671,32.836c1.06,0.959 1.727,2.345 1.727,3.886c-0,-0 -0,27.842 -0,27.842c-0,2.144 1.741,3.885 3.885,3.885c2.144,0 3.885,-1.741 3.885,-3.885l0,-8.65c0,-2.891 2.347,-5.238 5.238,-5.238l12.196,-0l0,-13.954c0,-2.145 -1.741,-3.886 -3.885,-3.886l-23.046,0Z"/></g></svg>