<?xml version="1.0" encoding="UTF-8" standalone="no"?><!DOCTYPE svg PUBLIC "-//W3C//DTD SVG 1.1//EN" "http://www.w3.org/Graphics/SVG/1.1/DTD/svg11.dtd"><svg width="100%" height="100%" viewBox="0 0 100 100" version="1.1" xmlns="http://www.w3.org/2000/svg" xmlns:xlink="http://www.w3.org/1999/xlink" xml:space="preserve" xmlns:serif="http://www.serif.com/" style="fill-rule:evenodd;clip-rule:evenodd;stroke-linejoin:round;stroke-miterlimit:2;"><rect id="_20---sparkling-heart" serif:id="20 - sparkling heart" x="0" y="0" width="100" height="100" style="fill:none;"/><g><path d="M16.215,55.81l-0.156,-0.209c-11.718,-15.742 -10.28,-32.17 -1.404,-40.921c8.876,-8.752 26.628,-8.752 35.503,8.751l0.001,-0c6.743,-13.297 18.608,-16.492 27.813,-13.423c-1.688,9.516 -8.343,16.896 -16.261,17.48c8.852,0.653 16.126,9.799 16.645,20.929c0.465,-9.983 6.365,-18.369 13.962,-20.463c1.336,8.209 -0.92,18.056 -8.06,27.647c-8.879,11.929 -22.206,26.898 -34.099,37.84l-0.001,-0c-6.325,-5.82 -13.057,-12.78 -19.309,-19.814c3.902,-7.794 11.741,-13.428 20.734,-14.118c-12.246,-0.94 -22.351,-11.045 -23.291,-23.292c-0.629,8.188 -5.354,15.419 -12.077,19.593Zm62.578,-45.509c2.588,0.986 4.939,2.475 6.869,4.379c3.251,3.204 5.503,7.439 6.478,12.292c-6.543,-1.895 -11.796,-8.462 -13.347,-16.671Z"/><path d="M92.14,26.972c0.93,0.269 1.885,0.444 2.86,0.516c-0.913,0.067 -1.808,0.225 -2.682,0.466c-0.053,-0.331 -0.113,-0.658 -0.178,-0.982Zm-14.168,-16.964c0.199,-1.123 0.329,-2.275 0.384,-3.449c0.059,1.277 0.208,2.527 0.437,3.742c-0.271,-0.103 -0.544,-0.2 -0.821,-0.293Z"/><path d="M16.215,55.81c4.128,5.531 9.2,11.702 14.634,17.817c-1.411,2.82 -2.308,5.921 -2.557,9.174c-0.94,-12.246 -11.046,-22.352 -23.292,-23.292c4.058,-0.311 7.882,-1.629 11.215,-3.699Z"/></g></svg>