<?xml version="1.0" encoding="UTF-8" standalone="no"?><!DOCTYPE svg PUBLIC "-//W3C//DTD SVG 1.1//EN" "http://www.w3.org/Graphics/SVG/1.1/DTD/svg11.dtd"><svg width="100%" height="100%" viewBox="0 0 101 101" version="1.1" xmlns="http://www.w3.org/2000/svg" xmlns:xlink="http://www.w3.org/1999/xlink" xml:space="preserve" xmlns:serif="http://www.serif.com/" style="fill-rule:evenodd;clip-rule:evenodd;stroke-linejoin:round;stroke-miterlimit:2;"><rect id="_29---graphics-card" serif:id="29 - graphics card" x="0.69" y="0.906" width="100" height="100" style="fill:none;"/><g><path d="M25.925,17.536c-0.001,0.694 -0.536,1.077 -1.193,0.855c-0.658,-0.223 -1.19,-0.967 -1.189,-1.661c0.001,-0.695 0.536,-1.077 1.193,-0.855c0.658,0.223 1.191,0.967 1.189,1.661Zm-0.566,-0.192c-0.001,0.364 -0.281,0.565 -0.626,0.448c-0.345,-0.117 -0.624,-0.507 -0.623,-0.87c0,-0.364 0.281,-0.565 0.625,-0.448c0.345,0.116 0.624,0.506 0.624,0.87Z"/><path d="M68.762,81.811c-0.001,0.694 -0.536,1.077 -1.194,0.855c-0.657,-0.223 -1.19,-0.967 -1.189,-1.661c0.002,-0.694 0.536,-1.077 1.194,-0.855c0.657,0.223 1.19,0.967 1.189,1.661Zm-0.567,-0.192c-0.001,0.364 -0.281,0.565 -0.626,0.448c-0.344,-0.116 -0.623,-0.506 -0.623,-0.87c0.001,-0.364 0.281,-0.565 0.626,-0.448c0.344,0.116 0.624,0.507 0.623,0.87Z"/><path d="M53.628,40.509c0.296,0.103 0.581,0.325 0.791,0.62c0.21,0.294 0.329,0.635 0.33,0.948c0.011,3.436 0.044,13.395 0.056,16.831c0.001,0.314 -0.116,0.573 -0.325,0.723c-0.208,0.149 -0.492,0.175 -0.788,0.073c-3.247,-1.124 -12.659,-4.38 -15.906,-5.503c-0.296,-0.103 -0.581,-0.325 -0.791,-0.619c-0.21,-0.294 -0.329,-0.636 -0.33,-0.949c-0.011,-3.436 -0.045,-13.395 -0.056,-16.831c-0.001,-0.313 0.116,-0.573 0.324,-0.723c0.209,-0.149 0.493,-0.175 0.789,-0.072l15.906,5.502Zm-1.808,12.341c0.567,0.043 0.985,-0.357 0.983,-1.006c-0.003,-0.767 -0.594,-1.594 -1.319,-1.845c-0.611,-0.211 -1.124,0.053 -1.269,0.601c-0.435,-0.156 -0.87,-0.3 -1.304,-0.448c-0.148,-0.651 -0.665,-1.273 -1.277,-1.485c-0.725,-0.251 -1.312,0.169 -1.31,0.936c0.003,0.768 0.594,1.595 1.319,1.846c0.613,0.212 1.127,-0.055 1.27,-0.605l1.303,0.451c0.121,0.531 0.487,1.043 0.95,1.329l0.005,1.379c-0.567,-0.042 -0.985,0.358 -0.983,1.006c0.002,0.768 0.593,1.594 1.319,1.845c0.725,0.251 1.312,-0.168 1.309,-0.936c-0.002,-0.648 -0.423,-1.338 -0.991,-1.689l-0.005,-1.379Zm-7.7,-2.664c0.567,0.043 0.985,-0.357 0.983,-1.005c-0.003,-0.768 -0.594,-1.595 -1.319,-1.846c-0.725,-0.251 -1.312,0.169 -1.31,0.936c0.002,0.648 0.424,1.339 0.992,1.689l0.005,1.379c-0.462,-0.034 -0.824,0.224 -0.942,0.671c-0.435,-0.156 -0.87,-0.3 -1.305,-0.448c-0.147,-0.651 -0.664,-1.273 -1.276,-1.485c-0.726,-0.251 -1.313,0.169 -1.31,0.936c0.002,0.768 0.593,1.595 1.319,1.846c0.612,0.212 1.126,-0.054 1.27,-0.605l1.303,0.451c0.148,0.651 0.664,1.274 1.277,1.486c0.612,0.212 1.126,-0.055 1.27,-0.605l1.303,0.451c0.148,0.651 0.664,1.274 1.277,1.486c0.725,0.25 1.312,-0.169 1.31,-0.937c-0.003,-0.767 -0.594,-1.594 -1.319,-1.845c-0.612,-0.212 -1.125,0.053 -1.269,0.601c-0.435,-0.156 -0.87,-0.3 -1.305,-0.448c-0.12,-0.531 -0.486,-1.043 -0.949,-1.328l-0.005,-1.38Zm7.38,4.549c0.38,0.131 0.69,0.565 0.691,0.967c0.001,0.402 -0.306,0.622 -0.686,0.491c-0.381,-0.132 -0.69,-0.565 -0.692,-0.968c-0.001,-0.402 0.306,-0.622 0.687,-0.49Zm-11.55,-3.996c0.38,0.132 0.69,0.565 0.691,0.967c0.001,0.403 -0.306,0.622 -0.686,0.491c-0.381,-0.132 -0.69,-0.565 -0.692,-0.967c-0.001,-0.403 0.307,-0.623 0.687,-0.491Zm3.85,1.332c0.38,0.131 0.69,0.565 0.691,0.967c0.001,0.403 -0.306,0.622 -0.686,0.491c-0.381,-0.132 -0.69,-0.565 -0.692,-0.967c-0.001,-0.403 0.307,-0.623 0.687,-0.491Zm3.85,1.332c0.38,0.131 0.69,0.565 0.691,0.967c0.001,0.402 -0.306,0.622 -0.686,0.491c-0.381,-0.132 -0.69,-0.565 -0.692,-0.968c-0.001,-0.402 0.307,-0.622 0.687,-0.49Zm-7.716,-7.4c0.725,0.251 1.316,1.078 1.319,1.846c0.003,0.767 -0.584,1.187 -1.31,0.936c-0.725,-0.251 -1.316,-1.078 -1.319,-1.846c-0.002,-0.767 0.585,-1.187 1.31,-0.936Zm0.002,0.662c0.38,0.132 0.69,0.565 0.692,0.967c0.001,0.403 -0.307,0.623 -0.687,0.491c-0.38,-0.131 -0.69,-0.565 -0.691,-0.967c-0.002,-0.403 0.306,-0.622 0.686,-0.491Zm11.55,3.996c0.38,0.131 0.69,0.565 0.692,0.967c0.001,0.402 -0.307,0.622 -0.687,0.491c-0.38,-0.132 -0.69,-0.565 -0.691,-0.968c-0.002,-0.402 0.306,-0.622 0.686,-0.49Zm-3.85,-1.332c0.38,0.131 0.69,0.565 0.692,0.967c0.001,0.403 -0.307,0.622 -0.687,0.491c-0.38,-0.132 -0.69,-0.565 -0.691,-0.967c-0.002,-0.403 0.306,-0.623 0.686,-0.491Zm-3.85,-1.332c0.38,0.132 0.69,0.565 0.692,0.967c0.001,0.403 -0.307,0.623 -0.687,0.491c-0.38,-0.132 -0.69,-0.565 -0.691,-0.967c-0.002,-0.403 0.306,-0.622 0.686,-0.491Zm4.157,-4.626c0.567,0.042 0.985,-0.358 0.983,-1.006c-0.003,-0.768 -0.594,-1.595 -1.319,-1.846c-0.726,-0.25 -1.312,0.169 -1.31,0.937c0.002,0.648 0.424,1.338 0.992,1.688l0.005,1.38c-0.462,-0.035 -0.825,0.224 -0.943,0.67c-0.434,-0.156 -0.869,-0.299 -1.304,-0.448c-0.148,-0.65 -0.664,-1.273 -1.277,-1.485c-0.725,-0.251 -1.312,0.169 -1.309,0.937c0.002,0.767 0.593,1.594 1.319,1.845c0.612,0.212 1.126,-0.054 1.27,-0.604l1.303,0.451c0.147,0.65 0.664,1.273 1.277,1.485c0.725,0.251 1.312,-0.169 1.309,-0.936c-0.002,-0.648 -0.423,-1.339 -0.991,-1.689l-0.005,-1.379Zm3.85,1.332c0.567,0.042 0.985,-0.358 0.983,-1.006c-0.003,-0.768 -0.594,-1.595 -1.319,-1.846c-0.726,-0.251 -1.312,0.169 -1.31,0.936c0.002,0.649 0.424,1.339 0.992,1.689l0.005,1.38c-0.567,-0.043 -0.985,0.357 -0.983,1.005c0.002,0.768 0.593,1.595 1.319,1.846c0.725,0.251 1.312,-0.169 1.309,-0.936c-0.002,-0.648 -0.424,-1.339 -0.991,-1.689l-0.005,-1.379Zm-11.873,-2.773c0.726,0.25 1.317,1.077 1.319,1.845c0.003,0.768 -0.584,1.187 -1.309,0.936c-0.726,-0.251 -1.317,-1.078 -1.319,-1.845c-0.003,-0.768 0.584,-1.187 1.309,-0.936Zm3.853,1.993c0.38,0.132 0.69,0.565 0.691,0.968c0.001,0.402 -0.306,0.622 -0.686,0.49c-0.381,-0.131 -0.69,-0.565 -0.692,-0.967c-0.001,-0.402 0.306,-0.622 0.687,-0.491Zm3.85,1.332c0.38,0.132 0.69,0.565 0.691,0.967c0.001,0.403 -0.306,0.623 -0.687,0.491c-0.38,-0.131 -0.69,-0.565 -0.691,-0.967c-0.001,-0.403 0.306,-0.622 0.687,-0.491Zm3.85,1.332c0.38,0.132 0.69,0.565 0.691,0.967c0.001,0.403 -0.306,0.622 -0.687,0.491c-0.38,-0.132 -0.69,-0.565 -0.691,-0.967c-0.001,-0.403 0.306,-0.623 0.687,-0.491Zm-11.55,-3.996c0.38,0.132 0.69,0.565 0.691,0.968c0.001,0.402 -0.306,0.622 -0.686,0.49c-0.381,-0.131 -0.69,-0.565 -0.692,-0.967c-0.001,-0.402 0.306,-0.622 0.687,-0.491Zm2.566,-2.107c0.148,0.651 0.665,1.273 1.277,1.485c0.726,0.251 1.312,-0.168 1.31,-0.936c-0.003,-0.768 -0.594,-1.594 -1.319,-1.845c-0.611,-0.212 -1.124,0.053 -1.269,0.6c-0.435,-0.155 -0.87,-0.299 -1.304,-0.447c-0.148,-0.651 -0.665,-1.273 -1.277,-1.485c-0.725,-0.251 -1.312,0.168 -1.31,0.936c0.003,0.767 0.594,1.594 1.319,1.845c0.613,0.212 1.126,-0.054 1.27,-0.604l1.303,0.451Zm-1.889,-0.999c0.002,0.402 -0.306,0.622 -0.686,0.49c-0.38,-0.131 -0.69,-0.565 -0.691,-0.967c-0.002,-0.402 0.306,-0.622 0.686,-0.49c0.38,0.131 0.69,0.564 0.691,0.967Zm7.7,2.664c0.002,0.402 -0.306,0.622 -0.686,0.49c-0.38,-0.131 -0.69,-0.565 -0.691,-0.967c-0.002,-0.402 0.306,-0.622 0.686,-0.491c0.38,0.132 0.69,0.565 0.691,0.968Zm-3.85,-1.332c0.002,0.402 -0.306,0.622 -0.686,0.49c-0.38,-0.131 -0.69,-0.565 -0.691,-0.967c-0.002,-0.402 0.306,-0.622 0.686,-0.491c0.38,0.132 0.69,0.565 0.691,0.968Zm7.7,2.663c0.002,0.403 -0.306,0.623 -0.686,0.491c-0.38,-0.131 -0.69,-0.565 -0.691,-0.967c-0.002,-0.403 0.306,-0.622 0.686,-0.491c0.38,0.132 0.69,0.565 0.691,0.967Z"/><path d="M68.85,32.064c-0.001,0.694 -0.536,1.077 -1.194,0.855c-0.657,-0.223 -1.19,-0.967 -1.189,-1.661c0.001,-0.694 0.536,-1.077 1.194,-0.855c0.657,0.223 1.19,0.967 1.189,1.661Zm-0.567,-0.192c-0.001,0.364 -0.281,0.565 -0.626,0.448c-0.344,-0.116 -0.624,-0.506 -0.623,-0.87c0.001,-0.364 0.281,-0.565 0.626,-0.448c0.344,0.116 0.623,0.507 0.623,0.87Z"/><path d="M25.815,80.372c-0.002,0.695 -0.536,1.077 -1.194,0.855c-0.658,-0.223 -1.19,-0.967 -1.189,-1.661c0.001,-0.694 0.536,-1.077 1.193,-0.855c0.658,0.223 1.191,0.967 1.19,1.661Zm-0.567,-0.191c-0.001,0.363 -0.281,0.564 -0.626,0.447c-0.345,-0.116 -0.624,-0.506 -0.623,-0.87c0,-0.364 0.281,-0.565 0.625,-0.448c0.345,0.117 0.624,0.507 0.624,0.871Z"/><path d="M60.251,92.028c-0.001,0.694 -0.536,1.077 -1.194,0.854c-0.657,-0.222 -1.19,-0.967 -1.189,-1.661c0.001,-0.694 0.536,-1.077 1.194,-0.854c0.657,0.222 1.19,0.967 1.189,1.661Zm-0.567,-0.192c-0.001,0.364 -0.281,0.564 -0.626,0.448c-0.344,-0.117 -0.624,-0.507 -0.623,-0.871c0.001,-0.364 0.281,-0.564 0.626,-0.448c0.344,0.117 0.624,0.507 0.623,0.871Z"/><path d="M31.113,6.427c0.486,-0.384 1.12,-0.576 1.827,-0.507c0.177,0.008 0.41,0.054 0.707,0.152c14.431,4.83 28.862,9.722 43.293,14.653c1.815,0.632 3.489,2.854 3.504,4.894c0.019,16.765 -0.059,33.498 -0.088,50.247c-0.004,0.617 -0.177,1.173 -0.498,1.589c-2.828,3.564 -5.678,7.105 -8.54,10.633c-0.128,0.155 -0.503,0.484 -0.542,0.524c-0.03,0.032 -9.142,7.066 -9.149,7.067c-0.533,0.268 -1.204,0.304 -1.891,0.081c-11.763,-3.938 -23.527,-7.917 -35.29,-11.944c-1.816,-0.631 -3.49,-2.847 -3.505,-4.895c-0.026,-21.098 0.01,-42.174 0.112,-63.229c0.011,-0.983 0.432,-1.782 1.095,-2.245c0.022,-0.022 8.916,-6.995 8.965,-7.02Zm27.123,62.415l0.032,9.516c-0.008,0.163 -0.132,0.256 -0.293,0.21l-9.836,-3.403l-0.001,-0l-7.618,-2.636l0.003,8.523l0.565,0.191c0.363,0.123 0.608,0.465 0.608,0.849l0,0.53c3.526,1.194 7.049,2.393 10.572,3.596c0.142,0.051 0.17,0.065 0.248,0.104c0.993,0.484 1.718,1.563 1.733,2.663c0.001,1.229 0.002,2.457 0.001,3.687c1.827,0.611 3.653,1.222 5.479,1.833c0.603,0.196 1.188,0.066 1.531,-0.347c2.858,-3.524 5.705,-7.06 8.528,-10.62c0.193,-0.249 0.299,-0.582 0.305,-0.954c0.107,-16.73 0.213,-33.462 0.088,-50.27c-0.016,-1.276 -1.048,-2.783 -2.313,-3.232c-14.425,-5.021 -28.851,-9.765 -43.277,-14.647c-0.568,-0.191 -1.115,-0.136 -1.538,0.115c-0.019,0.013 -0.037,0.023 -0.053,0.032c-0.454,0.294 -0.754,0.823 -0.762,1.52c-0.101,21.054 -0.259,42.09 -0.111,63.228c0.016,1.269 1.034,2.777 2.314,3.231c1.311,0.456 2.622,0.909 3.933,1.361c0.005,-1.153 0.01,-2.307 0.015,-3.462c0.003,-0.129 0.006,-0.145 0.014,-0.211c0.088,-0.765 0.714,-1.434 1.539,-1.466c0.025,-0 0.05,-0 0.076,-0c0.195,0.004 0.389,0.039 0.575,0.099c0.54,0.181 1.08,0.362 1.619,0.543l-0,-0.273c-0,-0.209 0.1,-0.405 0.27,-0.527c0.17,-0.122 0.388,-0.155 0.586,-0.088l0.325,0.109l-0.024,-15.291c0.008,-0.163 0.131,-0.256 0.293,-0.21l3.775,1.306l0.001,0l13.679,4.733l-0.009,-2.808l-20.702,-7.162c-0.521,-0.18 -0.872,-0.671 -0.874,-1.222c-0.015,-4.62 -0.084,-25.293 -0.105,-31.594c-0.001,-0.421 0.201,-0.816 0.544,-1.061c0.342,-0.244 0.781,-0.308 1.179,-0.17c5.955,2.06 25.492,8.819 29.858,10.329c0.521,0.18 0.871,0.671 0.873,1.222c0.016,4.62 0.084,25.293 0.105,31.594c0.002,0.421 -0.201,0.816 -0.543,1.061c-0.342,0.244 -0.782,0.308 -1.179,0.17l-2.028,-0.701Zm-5.836,18.854l-0.007,4.354l0.168,0.056l0.437,0.147c-0.003,-0.804 -0.007,-1.607 -0.012,-2.411c-0.005,-0.765 0.053,-1.56 -0.522,-2.093c-0.019,-0.018 -0.041,-0.036 -0.064,-0.053Zm-1.27,-0.538l-0.008,4.466c0.239,0.08 0.477,0.16 0.716,0.24l0.008,-4.451c-0.238,-0.086 -0.477,-0.17 -0.716,-0.255Zm-1.271,-0.441l-0.008,4.482c0.238,0.08 0.477,0.16 0.716,0.24l0.008,-4.475c-0.239,-0.083 -0.477,-0.165 -0.716,-0.247Zm-1.271,-0.433l-0.008,4.489c0.238,0.08 0.477,0.16 0.716,0.24l0.008,-4.486c-0.239,-0.081 -0.478,-0.162 -0.716,-0.243Zm-1.271,-0.43l-0.008,4.492c0.238,0.08 0.477,0.16 0.716,0.24l0.008,-4.49c-0.239,-0.08 -0.478,-0.161 -0.716,-0.242Zm-13.649,-78.523l0,0c-0.667,-0.223 -1.305,-0.108 -1.748,0.265c-0.023,0.023 -7.18,5.636 -7.18,5.636c14.374,4.812 28.748,9.685 43.122,14.596c1.816,0.632 3.49,2.854 3.505,4.895c0.019,16.765 -0.059,33.497 -0.089,50.246c-0.004,0.617 -0.176,1.173 -0.498,1.589c-1.586,2 -3.18,3.993 -4.78,5.981c0,-0 3.182,-2.484 3.881,-3.015c0.051,-0.024 0.097,-0.058 0.134,-0.1c0.001,0 0.231,-0.259 0.322,-0.369c2.858,-3.524 5.705,-7.06 8.529,-10.62c0.192,-0.249 0.298,-0.582 0.304,-0.954c0.107,-16.73 0.214,-33.462 0.088,-50.27c-0.016,-1.276 -1.048,-2.783 -2.313,-3.232c-14.425,-5.022 -28.851,-9.765 -43.277,-14.648Zm12.378,78.093l-0.008,4.495c0.238,0.081 0.477,0.161 0.716,0.241l0.008,-4.493c-0.155,-0.053 -0.31,-0.105 -0.465,-0.158c-0.084,-0.028 -0.168,-0.057 -0.251,-0.085Zm-1.272,-0.431l-0.007,4.499c0.238,0.08 0.477,0.161 0.716,0.241l0.008,-4.498c-0.239,-0.081 -0.478,-0.161 -0.717,-0.242Zm-1.271,-0.43l-0.008,4.502c0.239,0.08 0.478,0.16 0.717,0.241l0.008,-4.501c-0.239,-0.08 -0.478,-0.161 -0.717,-0.242Zm-1.271,-0.428l-0.008,4.501c0.239,0.081 0.478,0.161 0.717,0.242l0.008,-4.502c-0.239,-0.08 -0.478,-0.161 -0.717,-0.241Zm-1.271,-0.427l-0.008,4.5c0.239,0.08 0.478,0.161 0.717,0.241l0.008,-4.501c-0.239,-0.08 -0.478,-0.16 -0.717,-0.24Zm-1.271,-0.427l-0.008,4.497c0.239,0.081 0.478,0.162 0.717,0.242l0.007,-4.499c-0.238,-0.08 -0.477,-0.16 -0.716,-0.24Zm-1.271,-0.427l-0.008,4.494c0.239,0.081 0.478,0.162 0.717,0.243l0.007,-4.496c-0.238,-0.08 -0.477,-0.16 -0.716,-0.241Zm-1.271,-0.426l-0.008,4.489c0.239,0.081 0.478,0.162 0.716,0.243l0.008,-4.492c-0.238,-0.08 -0.477,-0.16 -0.716,-0.24Zm-1.271,-0.426l-0.008,4.484c0.239,0.081 0.478,0.162 0.716,0.243l0.008,-4.487c-0.238,-0.08 -0.477,-0.16 -0.716,-0.24Zm-1.271,-0.426l-0.008,4.477c0.239,0.082 0.478,0.163 0.716,0.244l0.008,-4.481c-0.239,-0.08 -0.477,-0.16 -0.716,-0.24Zm-1.271,-0.428l-0.008,4.472c0.239,0.082 0.478,0.163 0.716,0.244l0.008,-4.475c-0.239,-0.08 -0.477,-0.16 -0.716,-0.241Zm-1.271,-0.428l-0.008,4.466c0.239,0.082 0.478,0.163 0.716,0.245l0.008,-4.469c-0.239,-0.081 -0.477,-0.161 -0.716,-0.242Zm-1.271,-0.436l-0.008,4.467c0.239,0.082 0.478,0.163 0.716,0.245l0.008,-4.463c-0.147,-0.049 -0.294,-0.099 -0.442,-0.149c-0.089,-0.03 -0.181,-0.065 -0.274,-0.1Zm-0.555,-0.164c-0.232,-0.029 -0.428,0.032 -0.533,0.3c-0.13,0.333 -0.048,0.842 -0.05,1.302c-0.002,0.35 -0.004,0.7 -0.006,1.05l-0.008,1.586c0.197,0.068 0.393,0.135 0.589,0.202l0.008,-4.44Zm27.06,-11.603l0.029,8.574c-0.009,0.164 -0.131,0.255 -0.294,0.21l-17.446,-6.036l0.007,9.472l0.34,0.115l-0.004,-8.838c0.007,-0.123 0.027,-0.135 0.06,-0.169c0.054,-0.056 0.141,-0.066 0.233,-0.041l13.974,4.835l0,-0l3.481,1.204l-0.031,-9.205l-0.349,-0.121Zm-0.929,-0.321l0.026,7.682l-0,0.002l-0.001,0.006l0,0.001c-0.02,0.292 -0.153,0.239 -0.292,0.201l-0.001,-0l-17.455,-6.039l0.009,10.371l0.349,0.118l-0.007,-9.788c0.009,-0.165 0.132,-0.256 0.294,-0.21l17.446,6.036l-0.028,-8.262l-0.34,-0.118Zm-0.938,-0.325l0.023,6.74l-0,-0l-0,0.049c-0.009,0.163 -0.132,0.255 -0.294,0.209l-9.836,-3.402l-0,-0.001l-7.61,-2.632l0.012,11.272l0.34,0.115l-0.01,-10.687c0,-0.004 0.001,-0.008 0.001,-0.012c0.008,-0.112 0.028,-0.124 0.059,-0.157c0.048,-0.05 0.121,-0.063 0.201,-0.048c0.011,0.001 0.021,0.004 0.032,0.007l0.001,0l17.455,6.039l-0.025,-7.371l-0.349,-0.121Zm-0.929,-0.321l0.019,5.848c-0.007,0.122 -0.027,0.134 -0.06,0.168c-0.054,0.057 -0.141,0.067 -0.233,0.041l-7.913,-2.737l-0.001,-0l-9.541,-3.301l0.014,12.22l0.293,0.099l0.048,0.016l-0.013,-11.589c0.004,-0.064 0.011,-0.097 0.022,-0.12c0.037,-0.116 0.145,-0.173 0.28,-0.135l17.447,6.035l-0.022,-6.427l-0.34,-0.118Zm-0.938,-0.325l0.016,4.954l0,0.002l-0,0.006l-0,0.002c-0.02,0.291 -0.153,0.239 -0.292,0.2l-0.001,0l-17.455,-6.038l0.017,13.122l0.229,0.077l0.12,0.041l-0.015,-12.54c0.009,-0.164 0.131,-0.255 0.293,-0.21l17.447,6.036l-0.019,-5.534l-0.34,-0.118Zm-0.938,-0.324l0.013,4.011c-0.009,0.164 -0.131,0.255 -0.293,0.21l-17.446,-6.036l0.02,14.074l0.155,0.052l0.185,0.063l-0.018,-13.44c0,-0.004 0,-0.008 0.001,-0.012c0.008,-0.111 0.027,-0.124 0.059,-0.156c0.048,-0.05 0.121,-0.064 0.201,-0.049c0.01,0.002 0.021,0.004 0.032,0.007l0,0l17.455,6.039l-0.015,-4.642l-0.349,-0.121Zm-0.929,-0.321l0.01,3.119c-0.007,0.123 -0.027,0.135 -0.06,0.169c-0.054,0.056 -0.141,0.066 -0.233,0.041l-7.914,-2.738l0,0l-9.541,-3.301l0.023,14.974l0.089,0.03l0.26,0.088l-0.021,-14.391c0.009,-0.165 0.131,-0.255 0.293,-0.21l17.446,6.036l-0.012,-3.7l-0.34,-0.117Zm6.159,-27.908l-24.384,-8.436l0.085,25.802l24.385,8.436l-0.086,-25.802Z"/></g></svg>