<?xml version="1.0" encoding="UTF-8" standalone="no"?><!DOCTYPE svg PUBLIC "-//W3C//DTD SVG 1.1//EN" "http://www.w3.org/Graphics/SVG/1.1/DTD/svg11.dtd"><svg width="100%" height="100%" viewBox="0 0 100 100" version="1.1" xmlns="http://www.w3.org/2000/svg" xmlns:xlink="http://www.w3.org/1999/xlink" xml:space="preserve" xmlns:serif="http://www.serif.com/" style="fill-rule:evenodd;clip-rule:evenodd;stroke-linejoin:round;stroke-miterlimit:2;"><rect id="_29---world" serif:id="29 - world" x="0" y="0" width="100" height="100" style="fill:none;"/><path d="M50,5c24.836,0 45,20.164 45,45c0,24.836 -20.164,45 -45,45c-24.836,0 -45,-20.164 -45,-45c0,-24.836 20.164,-45 45,-45Zm25.605,9.1l-0.001,1.119l1.43,0.826l-0,0.825l0.715,0.413l-0,1.651l2.145,1.238l-0,0.826l0.715,0.413l-0,0.825l-0.715,0.413l-0,0.825l1.429,0.826l0,0.826l1.43,0.825l1.43,-0.825l0,-0.826l-0.715,-0.413l0,-0.825l-0.715,-0.413l0,-0.826l-0.715,-0.412l0,-0.826l0.531,-0.306c1.139,1.247 2.207,2.56 3.198,3.932l-0.869,0.502l0,0.825l-1.43,0.826l0,0.825l0.715,0.413l0,2.477l0.715,0.412l0,6.605l0.715,0.412l0,1.652l0.715,0.412l-0,3.302l0.715,0.413l-0,0.826l0.715,0.412l-0,0.826l0.715,0.413l-0,0.825l0.715,0.413l-0,0.826l0.715,0.412l-0,0.826l0.715,0.413l2.144,-1.239l0,-0.825l1.217,-0.703c0.08,1.087 0.121,2.183 0.121,3.288c0,24.339 -19.761,44.1 -44.1,44.1c-24.339,0 -44.1,-19.761 -44.1,-44.1c-0,-24.339 19.761,-44.1 44.1,-44.1c9.543,-0 18.383,3.038 25.605,8.2Zm-48.616,8.549l-0.715,0.413l-0,0.825l-0.715,0.413l0,0.826l-0.715,0.412l0,4.128l0.715,0.413l0,1.649l0.715,0.415l0.715,-0.413l0.715,0.413l-0,2.476l0.715,0.413l-0,1.651l0.715,0.413l-0,0.825l0.715,0.413l-0,3.302l5.719,3.302l1.43,-0.825l0.715,0.412l-0,0.826l2.86,1.651l0.714,-0.413l0.715,0.413l0,0.826l0.715,0.412l0,1.651l2.145,1.239l0.715,-0.413l0.714,0.412l1.431,-0.825l0.715,0.413l-0,0.825l0.715,0.413l-0,2.477l-0.715,0.413l-0,0.825l-1.43,0.826l-0,0.825l-0.715,0.413l-0,4.128l1.43,0.825l-0,0.826l0.715,0.412l-0,0.826l0.715,0.413l-0,0.825l0.715,0.413l-0,1.651l4.289,2.477l0,4.953l-0.715,0.413l0,3.302l-0.715,0.412l0,1.651l-0.715,0.413l0,1.651l-0.715,0.413l0,2.477l-0.714,0.412l-0,2.477l2.144,1.238l0.715,-0.413l0,-1.651l2.145,-1.238l0,-0.825l0.715,-0.413l-0,-0.826l5.719,-3.302l0,-0.825l0.715,-0.413l0.715,0.413l1.43,-0.826l0,-0.825l2.145,-1.239l-0,-0.825l1.43,-0.826l-0,-1.651l4.289,-2.476l0.715,0.412l0.715,-0.412l0,-0.826l0.715,-0.413l0,-0.825l0.715,-0.413l0,-0.825l0.715,-0.413l-0,-3.302l1.43,-0.826l-0,-0.825l1.43,-0.826l-0,-2.477l-1.43,-0.825l-0,-0.826l-1.43,-0.825l-0.715,0.413l-0.715,-0.413l-0.715,0.413l-2.145,-1.239l-0.715,0.413l-1.429,-0.825l-0,-1.651l-0.715,-0.413l-0,-0.826l-2.86,-1.651l-1.43,0.826l-0.715,-0.413l0,-0.826l-2.145,-1.238l0,-0.825l-1.429,-0.826l-0.715,0.413l-0.715,-0.413l-0.715,0.413l-0.715,-0.413l-0.715,0.413l-1.43,-0.826l-0.715,0.413l-1.43,-0.825l-1.43,0.825l-0.715,-0.413l-0.714,0.413l-0,1.651l-0.715,0.413l-2.145,-1.238l-1.43,0.825l-1.43,-0.825l0,-4.128l-1.43,-0.826l-0.715,0.413l-1.43,-0.827l0,-0.824l0.715,-0.413l0,-0.825l0.715,-0.413l0,-0.825l-0.715,-0.413l-0.715,0.413l-0.714,-0.413l-0.715,0.413l0.001,0.826l-2.146,1.237l-2.86,-1.651l0,-1.651l0.715,-0.412l0,-1.652l0.715,-0.412l-0,-1.651l2.145,-1.239l1.43,0.826l0.715,-0.413l0.714,0.413l2.145,-1.238l2.145,1.238l0,1.651l0.715,0.413l-0,0.825l0.715,0.413l0.715,-0.413l-0,-1.651l-0.715,-0.413l-0,-2.476l0.715,-0.413l-0,-0.825l2.86,-1.652l-0,-1.651l0.714,-0.412l0,-0.826l2.145,-1.238l0,-0.826l1.43,-0.825l0.715,0.413l2.145,-1.239l-0,-0.825l-0.66,-0.445l-0.77,0.445l-0.715,-0.413l0,-1.651l0.715,-0.413l2.86,1.651l0.715,-0.413l-0,-0.825l-0.715,-0.413l-0,-1.651l-2.86,-1.651l-0,-0.825l-1.43,-0.826l-1.43,0.826l-0.715,-0.413l0,-0.826l-1.43,-0.825l-0.714,0.412l-0.715,-0.412l-0.715,0.412l-0,1.652l0.715,0.412l-0,0.826l-0.714,0.413l-0.001,1.651l-0.715,0.412l-1.43,-0.825l-0,-0.826l-2.86,-1.651l-0.715,0.413l-0.715,-0.413l0,-0.825l0.715,-0.413l0,-0.826l2.145,-1.238l0.715,0.413l0.715,-0.413l-0,-0.825l-0.715,-0.413l-0,-0.826l-0.715,-0.412l-2.145,1.238l-1.43,-0.826l-0.715,0.413l-0.714,-0.413l-0.715,0.413l-2.145,-1.238l-0.715,0.413l-0.715,-0.413l-0,-0.826l-1.43,-0.825l-4.289,2.476l-0.715,-0.412l-2.145,1.238l-0,0.825l0.715,0.413l0.715,-0.413l0.715,0.413l-0,2.477l-0.715,0.413l-0,0.825l-0.715,0.413l-0,1.651l-0.715,0.413l-0,1.651l-0.715,0.412l-0,0.826Z"/></svg>