<?xml version="1.0" encoding="UTF-8" standalone="no"?><!DOCTYPE svg PUBLIC "-//W3C//DTD SVG 1.1//EN" "http://www.w3.org/Graphics/SVG/1.1/DTD/svg11.dtd"><svg width="100%" height="100%" viewBox="0 0 100 100" version="1.1" xmlns="http://www.w3.org/2000/svg" xmlns:xlink="http://www.w3.org/1999/xlink" xml:space="preserve" xmlns:serif="http://www.serif.com/" style="fill-rule:evenodd;clip-rule:evenodd;stroke-linejoin:round;stroke-miterlimit:2;"><rect id="_49---wave" serif:id="49 - wave" x="0" y="0" width="100" height="100" style="fill:none;"/><g><path d="M8.599,44.629c-0.058,0.181 -0.242,0.289 -0.428,0.25c-0.185,-0.039 -0.311,-0.212 -0.291,-0.4c0.527,-4.121 2.232,-8.119 5.114,-11.447c0.27,-0.305 0.654,-0.485 1.06,-0.497c0.407,-0.012 0.801,0.144 1.089,0.432c0.006,-0.006 0.006,-0.006 0.006,-0.006c0.558,0.558 0.573,1.458 0.034,2.034c-3.708,3.939 -5.624,7.402 -6.584,9.634Z"/><path d="M66.747,87.341c0.185,-0.041 0.371,0.065 0.43,0.245c0.059,0.18 -0.028,0.376 -0.201,0.453c-3.832,1.604 -8.146,2.126 -12.469,1.293c-0.399,-0.081 -0.746,-0.324 -0.96,-0.67c-0.214,-0.346 -0.276,-0.765 -0.17,-1.158c-0.009,-0.003 -0.009,-0.003 -0.009,-0.003c0.204,-0.762 0.977,-1.225 1.745,-1.046c5.264,1.242 9.221,1.17 11.634,0.886Z"/><path d="M25.337,82.769c0.127,0.14 0.128,0.354 0.002,0.495c-0.126,0.141 -0.339,0.164 -0.492,0.052c-3.305,-2.516 -5.914,-5.992 -7.355,-10.154c-0.129,-0.386 -0.092,-0.808 0.101,-1.166c0.192,-0.358 0.524,-0.621 0.917,-0.726c-0.002,-0.009 -0.002,-0.009 -0.002,-0.009c0.763,-0.204 1.55,0.233 1.779,0.988c1.556,5.181 3.596,8.572 5.05,10.52Z"/><path d="M91.401,53.773c0.058,-0.181 0.242,-0.289 0.428,-0.25c0.185,0.039 0.311,0.212 0.291,0.4c-0.527,4.121 -2.232,8.119 -5.114,11.447c-0.27,0.305 -0.654,0.484 -1.06,0.497c-0.407,0.012 -0.801,-0.144 -1.089,-0.432c-0.006,0.006 -0.006,0.006 -0.006,0.006c-0.558,-0.558 -0.573,-1.458 -0.034,-2.034c3.708,-3.939 5.624,-7.402 6.584,-9.634Z"/><path d="M33.271,11.061c-0.185,0.041 -0.371,-0.065 -0.43,-0.245c-0.059,-0.18 0.028,-0.376 0.201,-0.453c3.831,-1.604 8.146,-2.126 12.469,-1.293c0.399,0.081 0.746,0.324 0.96,0.67c0.214,0.346 0.275,0.765 0.17,1.158c0.009,0.002 0.009,0.002 0.009,0.003c-0.205,0.762 -0.977,1.225 -1.746,1.046c-5.264,-1.242 -9.22,-1.171 -11.633,-0.886Z"/><path d="M11.859,65.942c0.041,0.185 -0.065,0.371 -0.245,0.43c-0.18,0.059 -0.376,-0.028 -0.453,-0.201c-1.604,-3.832 -2.126,-8.147 -1.293,-12.471c0.081,-0.399 0.324,-0.746 0.67,-0.96c0.346,-0.214 0.765,-0.276 1.158,-0.17c0.002,-0.009 0.002,-0.009 0.002,-0.009c0.763,0.204 1.226,0.976 1.047,1.745c-1.242,5.265 -1.171,9.223 -0.886,11.636Z"/><path d="M83.57,73.86c0.14,-0.127 0.354,-0.129 0.495,-0.002c0.142,0.126 0.164,0.339 0.053,0.492c-2.516,3.305 -5.992,5.915 -10.152,7.356c-0.386,0.129 -0.808,0.093 -1.166,-0.1c-0.359,-0.193 -0.621,-0.525 -0.727,-0.918c-0.009,0.002 -0.009,0.002 -0.009,0.002c-0.204,-0.763 0.233,-1.55 0.989,-1.779c5.179,-1.557 8.57,-3.597 10.517,-5.051Z"/><path d="M45.42,90.601c0.181,0.058 0.289,0.243 0.25,0.428c-0.039,0.185 -0.212,0.311 -0.4,0.291c-4.12,-0.526 -8.118,-2.232 -11.445,-5.115c-0.305,-0.27 -0.484,-0.654 -0.497,-1.06c-0.012,-0.407 0.144,-0.801 0.432,-1.088c-0.006,-0.007 -0.006,-0.007 -0.006,-0.007c0.558,-0.558 1.458,-0.573 2.035,-0.033c3.937,3.708 7.399,5.624 9.631,6.584Z"/><path d="M16.447,24.541c-0.14,0.128 -0.354,0.129 -0.495,0.003c-0.141,-0.126 -0.164,-0.339 -0.052,-0.492c2.516,-3.306 5.991,-5.915 10.152,-7.356c0.386,-0.129 0.808,-0.093 1.166,0.1c0.358,0.193 0.621,0.525 0.726,0.918c0.009,-0.002 0.009,-0.002 0.009,-0.002c0.204,0.763 -0.233,1.549 -0.988,1.779c-5.18,1.557 -8.57,3.597 -10.518,5.05Z"/><path d="M8.826,55.5c-0.008,0.19 -0.159,0.342 -0.348,0.352c-0.189,0.011 -0.356,-0.124 -0.385,-0.311c-0.558,-4.117 0.055,-8.42 1.978,-12.381c0.182,-0.364 0.506,-0.637 0.895,-0.754c0.39,-0.117 0.811,-0.068 1.163,0.135c0.005,-0.007 0.005,-0.007 0.005,-0.007c0.683,0.394 0.93,1.26 0.559,1.956c-2.562,4.764 -3.517,8.605 -3.867,11.01Z"/><path d="M76.046,81.708c0.168,-0.087 0.375,-0.033 0.479,0.126c0.103,0.158 0.07,0.37 -0.077,0.489c-3.286,2.541 -7.318,4.163 -11.71,4.477c-0.406,0.025 -0.804,-0.12 -1.1,-0.399c-0.296,-0.278 -0.464,-0.667 -0.464,-1.074c-0.01,-0 -0.01,-0.001 -0.01,-0.001c0.001,-0.789 0.627,-1.436 1.416,-1.462c5.406,-0.163 9.209,-1.256 11.466,-2.156Z"/><path d="M34.863,88.008c0.16,0.102 0.216,0.308 0.131,0.477c-0.086,0.169 -0.286,0.246 -0.462,0.178c-3.844,-1.575 -7.264,-4.258 -9.732,-7.904c-0.224,-0.34 -0.298,-0.757 -0.205,-1.153c0.094,-0.396 0.346,-0.735 0.699,-0.939c-0.005,-0.008 -0.005,-0.008 -0.005,-0.008c0.684,-0.394 1.557,-0.176 1.974,0.495c2.844,4.601 5.692,7.348 7.6,8.854Z"/><path d="M91.174,42.901c0.008,-0.189 0.159,-0.341 0.348,-0.351c0.189,-0.011 0.356,0.124 0.385,0.311c0.558,4.117 -0.055,8.42 -1.978,12.381c-0.182,0.364 -0.506,0.637 -0.895,0.754c-0.39,0.117 -0.811,0.068 -1.163,-0.136c-0.005,0.008 -0.005,0.008 -0.005,0.008c-0.683,-0.395 -0.93,-1.26 -0.559,-1.956c2.562,-4.765 3.517,-8.606 3.867,-11.011Z"/><path d="M23.972,16.694c-0.168,0.087 -0.375,0.033 -0.479,-0.126c-0.104,-0.159 -0.07,-0.37 0.077,-0.489c3.286,-2.541 7.318,-4.163 11.709,-4.478c0.406,-0.024 0.805,0.12 1.101,0.399c0.296,0.279 0.464,0.668 0.464,1.075c0.009,0 0.009,0 0.009,0c0,0.79 -0.626,1.437 -1.415,1.463c-5.406,0.163 -9.209,1.256 -11.466,2.156Z"/><path d="M17.49,75.243c0.087,0.168 0.033,0.375 -0.125,0.479c-0.159,0.103 -0.37,0.07 -0.489,-0.077c-2.541,-3.287 -4.162,-7.32 -4.477,-11.712c-0.024,-0.406 0.12,-0.804 0.399,-1.101c0.279,-0.296 0.668,-0.464 1.075,-0.464c-0,-0.009 -0,-0.009 -0,-0.009c0.789,0 1.436,0.626 1.462,1.415c0.163,5.407 1.256,9.211 2.155,11.469Z"/><path d="M88.808,64.332c0.102,-0.16 0.308,-0.216 0.477,-0.131c0.169,0.086 0.246,0.286 0.178,0.462c-1.575,3.844 -4.256,7.265 -7.902,9.734c-0.339,0.224 -0.756,0.298 -1.153,0.205c-0.396,-0.094 -0.735,-0.347 -0.939,-0.699c-0.008,0.004 -0.008,0.004 -0.008,0.004c-0.394,-0.683 -0.176,-1.557 0.494,-1.974c4.601,-2.844 7.348,-5.693 8.853,-7.601Z"/><path d="M56.289,90.374c0.19,0.009 0.342,0.159 0.352,0.348c0.011,0.19 -0.124,0.356 -0.311,0.385c-4.116,0.558 -8.419,-0.054 -12.379,-1.978c-0.364,-0.182 -0.637,-0.506 -0.754,-0.896c-0.117,-0.389 -0.068,-0.81 0.136,-1.162c-0.008,-0.005 -0.008,-0.005 -0.008,-0.005c0.395,-0.684 1.261,-0.931 1.957,-0.559c4.763,2.562 8.603,3.518 11.007,3.867Z"/><path d="M11.21,34.07c-0.102,0.159 -0.309,0.216 -0.478,0.13c-0.169,-0.085 -0.246,-0.285 -0.178,-0.462c1.575,-3.844 4.257,-7.264 7.903,-9.733c0.339,-0.224 0.756,-0.298 1.152,-0.205c0.396,0.094 0.736,0.346 0.94,0.699c0.007,-0.005 0.008,-0.004 0.008,-0.004c0.394,0.683 0.175,1.556 -0.495,1.973c-4.6,2.845 -7.347,5.694 -8.852,7.602Z"/><path d="M18.949,45.772c-0.043,0.136 -0.181,0.217 -0.321,0.187c-0.139,-0.029 -0.233,-0.158 -0.218,-0.3c0.393,-3.078 1.664,-6.065 3.81,-8.556c0.209,-0.236 0.505,-0.375 0.82,-0.385c0.315,-0.01 0.62,0.111 0.842,0.334c0.006,-0.005 0.006,-0.005 0.006,-0.005c0.404,0.404 0.414,1.056 0.023,1.474c-2.796,2.965 -4.24,5.572 -4.962,7.251Z"/><path d="M62.56,77.806c0.139,-0.031 0.278,0.049 0.322,0.184c0.045,0.135 -0.02,0.281 -0.15,0.339c-2.862,1.199 -6.084,1.592 -9.314,0.978c-0.308,-0.063 -0.578,-0.25 -0.743,-0.518c-0.166,-0.267 -0.214,-0.592 -0.133,-0.896c-0.007,-0.002 -0.007,-0.002 -0.006,-0.002c0.148,-0.553 0.708,-0.888 1.265,-0.758c3.965,0.94 6.944,0.887 8.759,0.673Z"/><path d="M31.502,74.377c0.096,0.105 0.097,0.265 0.002,0.371c-0.094,0.106 -0.254,0.123 -0.369,0.04c-2.469,-1.881 -4.42,-4.475 -5.503,-7.579c-0.1,-0.299 -0.073,-0.626 0.076,-0.903c0.149,-0.277 0.406,-0.481 0.71,-0.563c-0.002,-0.007 -0.002,-0.007 -0.002,-0.007c0.553,-0.148 1.123,0.17 1.289,0.717c1.169,3.905 2.704,6.459 3.797,7.924Z"/><path d="M37.453,20.596c-0.139,0.031 -0.278,-0.049 -0.322,-0.184c-0.045,-0.135 0.02,-0.282 0.15,-0.339c2.863,-1.199 6.084,-1.592 9.314,-0.978c0.309,0.063 0.578,0.25 0.744,0.518c0.165,0.267 0.213,0.592 0.132,0.896c0.007,0.002 0.007,0.002 0.007,0.002c-0.148,0.553 -0.708,0.888 -1.265,0.757c-3.966,-0.939 -6.945,-0.886 -8.76,-0.672Z"/><path d="M21.394,61.757c0.031,0.139 -0.049,0.278 -0.184,0.322c-0.135,0.045 -0.281,-0.02 -0.339,-0.15c-1.198,-2.863 -1.592,-6.086 -0.977,-9.316c0.062,-0.309 0.249,-0.578 0.517,-0.744c0.268,-0.165 0.592,-0.213 0.896,-0.132c0.002,-0.007 0.002,-0.007 0.002,-0.007c0.553,0.149 0.888,0.708 0.757,1.265c-0.939,3.966 -0.886,6.946 -0.672,8.762Z"/><path d="M75.178,67.695c0.105,-0.095 0.265,-0.096 0.371,-0.001c0.106,0.094 0.123,0.254 0.039,0.369c-1.879,2.469 -4.473,4.421 -7.577,5.504c-0.298,0.1 -0.625,0.073 -0.902,-0.076c-0.278,-0.149 -0.482,-0.406 -0.563,-0.71c-0.007,0.001 -0.007,0.001 -0.007,0.001c-0.148,-0.552 0.169,-1.122 0.717,-1.288c3.903,-1.169 6.457,-2.705 7.922,-3.799Z"/><path d="M53.435,18.15c-0.136,-0.043 -0.217,-0.181 -0.188,-0.32c0.03,-0.139 0.159,-0.234 0.301,-0.219c3.078,0.394 6.064,1.664 8.554,3.812c0.236,0.208 0.376,0.505 0.385,0.819c0.01,0.315 -0.111,0.62 -0.333,0.843c0.005,0.005 0.005,0.005 0.005,0.005c-0.405,0.404 -1.057,0.415 -1.474,0.023c-2.965,-2.797 -5.571,-4.24 -7.25,-4.963Z"/><path d="M46.565,80.251c0.136,0.043 0.217,0.182 0.188,0.321c-0.03,0.139 -0.159,0.234 -0.301,0.219c-3.078,-0.394 -6.064,-1.665 -8.554,-3.812c-0.236,-0.208 -0.376,-0.505 -0.385,-0.82c-0.01,-0.314 0.111,-0.619 0.333,-0.842c-0.005,-0.005 -0.005,-0.005 -0.005,-0.005c0.405,-0.405 1.057,-0.415 1.474,-0.024c2.965,2.797 5.571,4.241 7.25,4.963Z"/><path d="M24.835,30.706c-0.105,0.096 -0.265,0.097 -0.371,0.002c-0.106,-0.095 -0.123,-0.254 -0.039,-0.369c1.88,-2.469 4.473,-4.421 7.577,-5.504c0.298,-0.1 0.625,-0.073 0.903,0.076c0.277,0.149 0.481,0.406 0.562,0.71c0.007,-0.002 0.007,-0.001 0.007,-0.001c0.148,0.552 -0.169,1.122 -0.716,1.288c-3.904,1.169 -6.458,2.705 -7.923,3.798Z"/><path d="M19.12,53.925c-0.007,0.142 -0.12,0.256 -0.262,0.264c-0.141,0.008 -0.266,-0.093 -0.288,-0.233c-0.417,-3.075 0.037,-6.29 1.466,-9.251c0.14,-0.282 0.391,-0.493 0.692,-0.584c0.302,-0.091 0.628,-0.054 0.9,0.104c0.004,-0.006 0.004,-0.006 0.004,-0.006c0.495,0.286 0.674,0.913 0.404,1.417c-1.934,3.588 -2.654,6.48 -2.916,8.289Z"/><path d="M69.534,73.581c0.126,-0.065 0.282,-0.024 0.359,0.095c0.078,0.119 0.053,0.277 -0.057,0.366c-2.455,1.899 -5.465,3.113 -8.743,3.356c-0.315,0.019 -0.623,-0.092 -0.853,-0.308c-0.229,-0.215 -0.359,-0.516 -0.359,-0.831c-0.008,-0 -0.008,-0 -0.008,-0.001c0,-0.572 0.454,-1.04 1.026,-1.059c4.074,-0.118 6.938,-0.941 8.635,-1.618Z"/><path d="M61.353,20.096c-0.12,-0.077 -0.162,-0.231 -0.098,-0.358c0.064,-0.127 0.214,-0.185 0.346,-0.134c2.872,1.177 5.428,3.178 7.277,5.896c0.174,0.263 0.232,0.585 0.16,0.892c-0.072,0.306 -0.267,0.57 -0.54,0.727c0.004,0.006 0.003,0.006 0.003,0.006c-0.495,0.286 -1.128,0.127 -1.43,-0.359c-2.139,-3.469 -4.283,-5.538 -5.718,-6.67Z"/><path d="M38.647,78.306c0.12,0.076 0.162,0.231 0.098,0.358c-0.064,0.127 -0.214,0.185 -0.346,0.134c-2.872,-1.177 -5.428,-3.178 -7.277,-5.897c-0.174,-0.262 -0.232,-0.585 -0.16,-0.891c0.072,-0.307 0.267,-0.57 0.54,-0.727c-0.004,-0.007 -0.003,-0.007 -0.003,-0.007c0.495,-0.286 1.128,-0.127 1.43,0.359c2.139,3.469 4.283,5.539 5.718,6.671Z"/><path d="M30.479,24.82c-0.126,0.066 -0.281,0.025 -0.359,-0.094c-0.078,-0.119 -0.053,-0.277 0.057,-0.367c2.455,-1.898 5.465,-3.112 8.744,-3.355c0.314,-0.019 0.622,0.092 0.852,0.307c0.229,0.216 0.36,0.517 0.36,0.832c0.007,0 0.007,0 0.007,0c-0,0.572 -0.454,1.041 -1.026,1.059c-4.073,0.119 -6.937,0.942 -8.635,1.618Z"/><path d="M25.618,68.732c0.065,0.127 0.024,0.282 -0.095,0.36c-0.118,0.077 -0.277,0.052 -0.366,-0.058c-1.898,-2.455 -3.112,-5.466 -3.355,-8.745c-0.019,-0.315 0.092,-0.623 0.307,-0.853c0.216,-0.229 0.517,-0.359 0.832,-0.359c-0,-0.007 -0,-0.007 0,-0.007c0.572,-0 1.041,0.454 1.059,1.025c0.119,4.075 0.941,6.939 1.618,8.637Z"/><path d="M45.283,18.321c-0.142,-0.006 -0.256,-0.119 -0.264,-0.261c-0.008,-0.142 0.093,-0.267 0.233,-0.289c3.075,-0.417 6.289,0.038 9.25,1.467c0.282,0.14 0.493,0.391 0.584,0.692c0.091,0.302 0.053,0.627 -0.104,0.9c0.006,0.004 0.006,0.004 0.006,0.004c-0.286,0.495 -0.914,0.674 -1.418,0.404c-3.587,-1.934 -6.478,-2.654 -8.287,-2.917Z"/><path d="M54.717,80.081c0.142,0.006 0.256,0.119 0.264,0.261c0.008,0.142 -0.093,0.267 -0.233,0.289c-3.075,0.416 -6.289,-0.038 -9.25,-1.467c-0.282,-0.14 -0.493,-0.391 -0.584,-0.692c-0.091,-0.302 -0.053,-0.627 0.104,-0.9c-0.006,-0.004 -0.006,-0.004 -0.006,-0.004c0.286,-0.495 0.914,-0.674 1.418,-0.404c3.587,1.934 6.478,2.654 8.287,2.917Z"/><path d="M20.907,37.853c-0.076,0.119 -0.231,0.162 -0.358,0.097c-0.127,-0.064 -0.184,-0.213 -0.133,-0.346c1.176,-2.872 3.176,-5.428 5.894,-7.278c0.263,-0.174 0.585,-0.232 0.892,-0.16c0.307,0.072 0.57,0.267 0.727,0.54c0.007,-0.003 0.007,-0.003 0.007,-0.003c0.285,0.495 0.127,1.128 -0.359,1.43c-3.469,2.14 -5.538,4.284 -6.67,5.72Z"/><path d="M24.112,42.842c-0.052,0.109 -0.178,0.162 -0.292,0.122c-0.115,-0.04 -0.18,-0.16 -0.152,-0.278c0.671,-2.543 2.064,-4.914 4.134,-6.776c0.213,-0.187 0.494,-0.277 0.775,-0.249c0.282,0.027 0.54,0.17 0.712,0.395c0.006,-0.004 0.006,-0.004 0.006,-0.003c0.279,0.363 0.218,0.883 -0.137,1.173c-2.721,2.21 -4.244,4.268 -5.046,5.616Z"/><path d="M57.44,74.8c0.121,-0.01 0.23,0.073 0.252,0.192c0.023,0.119 -0.049,0.236 -0.165,0.27c-2.538,0.691 -5.287,0.67 -7.934,-0.192c-0.268,-0.091 -0.486,-0.289 -0.603,-0.547c-0.117,-0.257 -0.122,-0.552 -0.014,-0.813c-0.006,-0.003 -0.006,-0.003 -0.006,-0.003c0.176,-0.424 0.657,-0.632 1.086,-0.469c3.273,1.252 5.817,1.541 7.384,1.562Z"/><path d="M68.454,29.961c-0.07,-0.099 -0.052,-0.235 0.04,-0.314c0.091,-0.079 0.228,-0.076 0.316,0.008c1.867,1.853 3.223,4.245 3.8,6.969c0.056,0.278 -0.007,0.566 -0.171,0.796c-0.165,0.23 -0.418,0.381 -0.698,0.418c0,0.007 0,0.007 0,0.007c-0.455,0.06 -0.875,-0.253 -0.948,-0.706c-0.553,-3.461 -1.574,-5.81 -2.339,-7.178Z"/><path d="M31.546,68.44c0.07,0.1 0.052,0.236 -0.04,0.315c-0.091,0.079 -0.228,0.075 -0.316,-0.008c-1.867,-1.853 -3.223,-4.245 -3.8,-6.969c-0.056,-0.278 0.007,-0.566 0.171,-0.796c0.165,-0.23 0.418,-0.381 0.698,-0.418c-0,-0.007 -0,-0.007 -0,-0.007c0.455,-0.06 0.875,0.253 0.948,0.706c0.553,3.461 1.574,5.809 2.339,7.177Z"/><path d="M42.571,23.603c-0.121,0.01 -0.23,-0.073 -0.252,-0.192c-0.023,-0.119 0.049,-0.236 0.165,-0.27c2.538,-0.691 5.287,-0.669 7.934,0.192c0.268,0.091 0.487,0.289 0.604,0.547c0.116,0.258 0.121,0.552 0.013,0.814c0.006,0.002 0.006,0.003 0.006,0.003c-0.176,0.424 -0.656,0.631 -1.086,0.468c-3.273,-1.252 -5.817,-1.541 -7.384,-1.562Z"/><path d="M24.4,56.637c0.01,0.121 -0.072,0.23 -0.192,0.253c-0.119,0.022 -0.236,-0.049 -0.27,-0.165c-0.69,-2.539 -0.669,-5.288 0.193,-7.936c0.091,-0.268 0.289,-0.487 0.547,-0.604c0.257,-0.116 0.552,-0.121 0.813,-0.013c0.003,-0.006 0.004,-0.006 0.004,-0.006c0.423,0.176 0.631,0.656 0.468,1.085c-1.252,3.274 -1.542,5.819 -1.563,7.386Z"/><path d="M56.364,23.314c-0.109,-0.052 -0.163,-0.178 -0.122,-0.292c0.04,-0.115 0.16,-0.18 0.278,-0.152c2.543,0.671 4.913,2.065 6.775,4.135c0.186,0.213 0.277,0.493 0.249,0.775c-0.028,0.281 -0.171,0.539 -0.395,0.711c0.004,0.006 0.004,0.006 0.004,0.006c-0.365,0.279 -0.885,0.219 -1.175,-0.137c-2.209,-2.721 -4.267,-4.244 -5.614,-5.046Z"/><path d="M43.636,75.088c0.109,0.051 0.163,0.178 0.122,0.292c-0.04,0.115 -0.16,0.18 -0.278,0.152c-2.543,-0.672 -4.913,-2.065 -6.775,-4.135c-0.186,-0.213 -0.277,-0.493 -0.249,-0.775c0.028,-0.282 0.171,-0.539 0.395,-0.711c-0.004,-0.006 -0.004,-0.006 -0.004,-0.006c0.365,-0.279 0.885,-0.219 1.175,0.137c2.209,2.721 4.267,4.244 5.614,5.046Z"/><path d="M30.77,30.751c-0.1,0.069 -0.235,0.052 -0.314,-0.04c-0.079,-0.092 -0.076,-0.229 0.008,-0.317c1.852,-1.866 4.244,-3.223 6.967,-3.801c0.278,-0.055 0.566,0.007 0.796,0.172c0.23,0.165 0.381,0.418 0.418,0.698c0.007,-0.001 0.007,-0.001 0.007,-0c0.06,0.455 -0.253,0.875 -0.706,0.948c-3.461,0.553 -5.808,1.574 -7.176,2.34Z"/><path d="M23.348,49.758c-0.021,0.12 -0.13,0.204 -0.25,0.195c-0.121,-0.009 -0.216,-0.109 -0.219,-0.23c-0.01,-2.63 0.722,-5.281 2.24,-7.615c0.157,-0.236 0.405,-0.396 0.684,-0.442c0.279,-0.046 0.565,0.026 0.79,0.198c0.004,-0.005 0.004,-0.005 0.005,-0.005c0.363,0.279 0.439,0.797 0.171,1.169c-2.057,2.839 -2.995,5.222 -3.421,6.73Z"/><path d="M63.811,72.003c0.114,-0.041 0.241,0.011 0.293,0.12c0.053,0.109 0.014,0.241 -0.089,0.304c-2.273,1.324 -4.934,2.015 -7.714,1.868c-0.282,-0.018 -0.545,-0.153 -0.724,-0.372c-0.18,-0.218 -0.261,-0.502 -0.224,-0.782c-0.007,-0.001 -0.007,-0.002 -0.007,-0.002c0.06,-0.455 0.471,-0.78 0.928,-0.734c3.486,0.363 6.018,-0.016 7.537,-0.402Z"/><path d="M62.847,25.842c-0.093,-0.079 -0.112,-0.214 -0.043,-0.314c0.068,-0.101 0.201,-0.133 0.308,-0.075c2.282,1.307 4.211,3.266 5.474,5.748c0.125,0.254 0.139,0.548 0.04,0.813c-0.1,0.265 -0.305,0.477 -0.566,0.585c0.002,0.006 0.002,0.006 0.002,0.006c-0.424,0.176 -0.911,-0.017 -1.099,-0.436c-1.429,-3.2 -3.023,-5.204 -4.116,-6.327Z"/><path d="M37.153,72.56c0.093,0.078 0.112,0.214 0.043,0.314c-0.068,0.1 -0.201,0.132 -0.308,0.074c-2.282,-1.306 -4.211,-3.266 -5.474,-5.747c-0.125,-0.254 -0.139,-0.548 -0.04,-0.813c0.1,-0.265 0.305,-0.477 0.566,-0.585c-0.002,-0.007 -0.002,-0.007 -0.002,-0.007c0.424,-0.175 0.911,0.018 1.099,0.437c1.429,3.2 3.023,5.204 4.116,6.327Z"/><path d="M36.2,26.4c-0.114,0.041 -0.241,-0.011 -0.293,-0.12c-0.053,-0.109 -0.014,-0.24 0.089,-0.304c2.273,-1.324 4.934,-2.015 7.714,-1.868c0.283,0.019 0.545,0.153 0.724,0.372c0.18,0.219 0.261,0.502 0.224,0.783c0.007,0.001 0.007,0.001 0.007,0.001c-0.06,0.455 -0.471,0.78 -0.928,0.734c-3.486,-0.362 -6.018,0.017 -7.537,0.402Z"/><path d="M27.196,63.009c0.042,0.114 -0.01,0.241 -0.119,0.294c-0.11,0.052 -0.241,0.014 -0.304,-0.09c-1.324,-2.273 -2.015,-4.935 -1.867,-7.715c0.018,-0.283 0.153,-0.545 0.371,-0.724c0.219,-0.18 0.502,-0.261 0.783,-0.224c0.001,-0.007 0.001,-0.007 0.001,-0.007c0.455,0.06 0.78,0.471 0.734,0.928c-0.363,3.486 0.016,6.019 0.401,7.538Z"/><path d="M49.449,22.55c-0.12,-0.021 -0.204,-0.129 -0.194,-0.25c0.009,-0.121 0.108,-0.216 0.229,-0.219c2.63,-0.01 5.28,0.723 7.614,2.24c0.236,0.158 0.395,0.405 0.441,0.684c0.047,0.279 -0.025,0.565 -0.197,0.79c0.005,0.004 0.005,0.004 0.005,0.004c-0.279,0.364 -0.798,0.441 -1.17,0.172c-2.838,-2.057 -5.22,-2.995 -6.728,-3.421Z"/><path d="M50.551,75.852c0.12,0.021 0.204,0.129 0.194,0.25c-0.009,0.121 -0.108,0.215 -0.229,0.218c-2.63,0.01 -5.28,-0.722 -7.614,-2.24c-0.236,-0.157 -0.395,-0.404 -0.441,-0.684c-0.047,-0.279 0.025,-0.565 0.197,-0.789c-0.005,-0.004 -0.005,-0.004 -0.005,-0.005c0.279,-0.364 0.798,-0.44 1.17,-0.171c2.838,2.056 5.22,2.995 6.728,3.421Z"/><path d="M26.651,36.359c-0.078,0.093 -0.214,0.112 -0.314,0.043c-0.1,-0.068 -0.133,-0.201 -0.075,-0.308c1.307,-2.283 3.266,-4.212 5.747,-5.475c0.254,-0.125 0.548,-0.14 0.813,-0.04c0.265,0.1 0.477,0.305 0.585,0.566c0.007,-0.002 0.007,-0.002 0.007,-0.002c0.175,0.424 -0.018,0.91 -0.436,1.098c-3.2,1.43 -5.204,3.025 -6.327,4.118Z"/><path d="M27.436,46.709c-0.031,0.099 -0.132,0.158 -0.233,0.136c-0.101,-0.021 -0.169,-0.115 -0.158,-0.218c0.287,-2.25 1.22,-4.434 2.797,-6.25c0.145,-0.163 0.35,-0.259 0.568,-0.265c0.218,-0.007 0.429,0.077 0.583,0.231c0.003,-0.003 0.003,-0.003 0.003,-0.003c0.31,0.31 0.318,0.809 0.019,1.129c-2.014,2.142 -3.056,4.025 -3.579,5.24Z"/><path d="M63.442,30.906c-0.07,-0.076 -0.071,-0.193 -0.002,-0.27c0.069,-0.077 0.185,-0.089 0.268,-0.028c1.809,1.377 3.235,3.282 4.018,5.562c0.068,0.203 0.048,0.426 -0.054,0.614c-0.101,0.189 -0.276,0.327 -0.483,0.383c0.001,0.004 0,0.004 0,0.004c-0.43,0.115 -0.873,-0.131 -1.003,-0.557c-0.847,-2.809 -1.955,-4.649 -2.744,-5.708Z"/><path d="M36.558,67.496c0.07,0.076 0.071,0.192 0.002,0.269c-0.069,0.077 -0.185,0.09 -0.268,0.029c-1.809,-1.377 -3.235,-3.282 -4.018,-5.562c-0.068,-0.204 -0.048,-0.426 0.054,-0.614c0.101,-0.189 0.276,-0.327 0.483,-0.383c-0.001,-0.004 -0,-0.004 -0,-0.004c0.43,-0.115 0.873,0.131 1.003,0.556c0.847,2.81 1.955,4.65 2.744,5.709Z"/><path d="M40.883,28.415c-0.101,0.022 -0.202,-0.036 -0.235,-0.134c-0.032,-0.098 0.015,-0.205 0.11,-0.247c2.092,-0.876 4.448,-1.16 6.808,-0.702c0.214,0.044 0.401,0.174 0.515,0.36c0.115,0.186 0.148,0.411 0.092,0.622c0.004,0.001 0.004,0.001 0.004,0.001c-0.113,0.422 -0.54,0.679 -0.966,0.58c-2.863,-0.674 -5.015,-0.635 -6.328,-0.48Z"/><path d="M29.213,58.325c0.022,0.101 -0.036,0.202 -0.134,0.234c-0.098,0.032 -0.204,-0.015 -0.246,-0.109c-0.877,-2.094 -1.16,-4.453 -0.701,-6.816c0.043,-0.213 0.173,-0.398 0.357,-0.512c0.185,-0.114 0.408,-0.146 0.618,-0.09c0.001,-0.005 0.001,-0.005 0.001,-0.005c0.425,0.115 0.683,0.545 0.584,0.974c-0.673,2.86 -0.634,5.011 -0.479,6.324Z"/><path d="M52.496,26.638c-0.099,-0.032 -0.157,-0.132 -0.136,-0.233c0.021,-0.102 0.115,-0.17 0.218,-0.159c2.251,0.288 4.435,1.221 6.251,2.8c0.163,0.144 0.258,0.349 0.265,0.566c0.006,0.217 -0.077,0.427 -0.231,0.58c0.003,0.004 0.003,0.004 0.003,0.004c-0.311,0.311 -0.812,0.319 -1.132,0.019c-2.142,-2.013 -4.024,-3.055 -5.238,-3.577Z"/><path d="M47.504,71.764c0.099,0.031 0.157,0.132 0.136,0.233c-0.021,0.101 -0.115,0.17 -0.218,0.159c-2.251,-0.288 -4.435,-1.221 -6.251,-2.8c-0.163,-0.144 -0.258,-0.349 -0.265,-0.566c-0.006,-0.217 0.077,-0.427 0.231,-0.581c-0.003,-0.003 -0.003,-0.003 -0.003,-0.004c0.311,-0.31 0.812,-0.318 1.132,-0.018c2.142,2.013 4.024,3.055 5.238,3.577Z"/><path d="M70.787,40.077c-0.022,-0.101 0.036,-0.202 0.134,-0.234c0.098,-0.033 0.204,0.015 0.246,0.109c0.877,2.094 1.16,4.453 0.701,6.816c-0.043,0.213 -0.173,0.398 -0.357,0.511c-0.185,0.114 -0.408,0.147 -0.618,0.091c-0.001,0.004 -0.001,0.004 -0.001,0.004c-0.425,-0.114 -0.683,-0.544 -0.584,-0.973c0.673,-2.861 0.634,-5.011 0.479,-6.324Z"/><path d="M31.714,35.761c-0.077,0.07 -0.193,0.071 -0.27,0.002c-0.077,-0.069 -0.089,-0.185 -0.029,-0.268c1.376,-1.807 3.277,-3.232 5.552,-4.016c0.206,-0.068 0.431,-0.049 0.621,0.054c0.191,0.103 0.331,0.28 0.387,0.489c0.005,-0.001 0.005,-0.001 0.005,-0c0.113,0.425 -0.13,0.864 -0.551,0.992c-2.813,0.848 -4.656,1.957 -5.715,2.747Z"/><path d="M27.56,52.634c-0.004,0.103 -0.086,0.186 -0.19,0.192c-0.103,0.006 -0.193,-0.068 -0.209,-0.17c-0.305,-2.248 0.031,-4.599 1.084,-6.761c0.098,-0.195 0.272,-0.341 0.48,-0.404c0.209,-0.062 0.434,-0.036 0.623,0.073c0.003,-0.004 0.003,-0.004 0.003,-0.004c0.379,0.219 0.516,0.699 0.31,1.085c-1.391,2.591 -1.911,4.68 -2.101,5.989Z"/><path d="M58.25,28.051c-0.087,-0.055 -0.118,-0.168 -0.071,-0.26c0.046,-0.092 0.155,-0.134 0.251,-0.097c2.101,0.861 3.969,2.328 5.315,4.324c0.119,0.181 0.158,0.403 0.108,0.614c-0.05,0.211 -0.184,0.392 -0.372,0.501c0.002,0.004 0.001,0.005 0.001,0.005c-0.381,0.219 -0.867,0.098 -1.099,-0.275c-1.547,-2.499 -3.096,-3.993 -4.133,-4.812Z"/><path d="M41.75,70.351c0.087,0.055 0.118,0.168 0.071,0.26c-0.046,0.092 -0.155,0.134 -0.251,0.097c-2.101,-0.861 -3.969,-2.329 -5.315,-4.324c-0.119,-0.181 -0.158,-0.404 -0.108,-0.615c0.05,-0.211 0.184,-0.392 0.372,-0.5c-0.002,-0.004 -0.001,-0.005 -0.001,-0.005c0.381,-0.219 0.867,-0.098 1.099,0.275c1.547,2.499 3.096,3.993 4.133,4.812Z"/><path d="M35.815,31.484c-0.092,0.048 -0.205,0.018 -0.261,-0.068c-0.057,-0.087 -0.039,-0.202 0.042,-0.267c1.796,-1.389 4.003,-2.274 6.406,-2.442c0.215,-0.012 0.426,0.065 0.583,0.213c0.156,0.148 0.245,0.354 0.245,0.569c0.005,0 0.005,0.001 0.005,0.001c-0,0.442 -0.351,0.805 -0.793,0.82c-2.935,0.091 -5,0.685 -6.227,1.174Z"/><path d="M32.282,63.394c0.048,0.091 0.018,0.204 -0.068,0.261c-0.087,0.056 -0.202,0.038 -0.267,-0.042c-1.389,-1.797 -2.274,-4.004 -2.441,-6.408c-0.013,-0.215 0.064,-0.426 0.212,-0.583c0.148,-0.156 0.354,-0.245 0.57,-0.245c-0,-0.005 -0,-0.005 -0,-0.005c0.442,0 0.805,0.351 0.82,0.793c0.091,2.936 0.685,5.002 1.174,6.229Z"/><path d="M46.572,26.762c-0.103,-0.005 -0.186,-0.087 -0.191,-0.19c-0.006,-0.103 0.067,-0.194 0.169,-0.21c2.248,-0.305 4.599,0.031 6.761,1.085c0.195,0.098 0.341,0.271 0.403,0.48c0.063,0.208 0.036,0.433 -0.072,0.622c0.004,0.002 0.003,0.002 0.003,0.003c-0.219,0.379 -0.7,0.516 -1.086,0.31c-2.59,-1.391 -4.678,-1.91 -5.987,-2.1Z"/><path d="M53.428,71.64c0.103,0.005 0.186,0.087 0.191,0.19c0.006,0.103 -0.067,0.194 -0.169,0.21c-2.248,0.305 -4.599,-0.031 -6.761,-1.085c-0.195,-0.098 -0.341,-0.271 -0.403,-0.48c-0.063,-0.208 -0.036,-0.433 0.072,-0.622c-0.004,-0.002 -0.003,-0.003 -0.003,-0.003c0.219,-0.379 0.7,-0.517 1.086,-0.31c2.59,1.391 4.678,1.91 5.987,2.1Z"/><path d="M67.718,35.008c-0.048,-0.092 -0.018,-0.204 0.068,-0.261c0.087,-0.057 0.202,-0.038 0.267,0.042c1.389,1.797 2.274,4.004 2.441,6.407c0.013,0.216 -0.064,0.426 -0.212,0.583c-0.148,0.157 -0.354,0.246 -0.57,0.246c0,0.005 0,0.005 0,0.005c-0.442,-0 -0.805,-0.351 -0.82,-0.794c-0.091,-2.935 -0.685,-5.001 -1.174,-6.228Z"/><path d="M28.859,40.954c-0.055,0.087 -0.168,0.118 -0.26,0.072c-0.092,-0.047 -0.134,-0.156 -0.097,-0.252c0.861,-2.1 2.327,-3.968 4.321,-5.315c0.182,-0.119 0.405,-0.159 0.616,-0.108c0.212,0.05 0.393,0.185 0.502,0.373c0.004,-0.002 0.005,-0.001 0.005,-0.001c0.219,0.38 0.098,0.864 -0.274,1.096c-2.5,1.548 -3.994,3.097 -4.813,4.135Z"/><path d="M14.606,40.506c-0.07,0.151 -0.243,0.223 -0.399,0.168c-0.157,-0.055 -0.246,-0.219 -0.208,-0.38c0.927,-3.51 2.859,-6.78 5.734,-9.337c0.271,-0.236 0.628,-0.349 0.986,-0.313c0.358,0.036 0.685,0.218 0.904,0.504c0.007,-0.005 0.007,-0.005 0.007,-0.005c0.415,0.542 0.326,1.316 -0.201,1.749c-3.673,2.997 -5.734,5.786 -6.823,7.614Z"/><path d="M60.172,84.2c0.165,-0.014 0.314,0.099 0.345,0.262c0.031,0.163 -0.067,0.323 -0.226,0.37c-3.502,0.953 -7.3,0.914 -10.951,-0.297c-0.34,-0.118 -0.616,-0.37 -0.764,-0.698c-0.148,-0.328 -0.153,-0.702 -0.016,-1.035c-0.007,-0.003 -0.007,-0.003 -0.007,-0.004c0.261,-0.631 0.976,-0.94 1.615,-0.7c4.431,1.683 7.876,2.074 10.004,2.102Z"/><path d="M24.77,75.505c0.095,0.136 0.072,0.322 -0.054,0.43c-0.126,0.108 -0.313,0.103 -0.433,-0.011c-2.576,-2.558 -4.442,-5.866 -5.218,-9.635c-0.068,-0.353 0.012,-0.718 0.222,-1.01c0.211,-0.292 0.532,-0.484 0.889,-0.531c-0.001,-0.008 -0.001,-0.008 -0.001,-0.008c0.677,-0.089 1.303,0.375 1.414,1.048c0.758,4.68 2.142,7.859 3.181,9.717Z"/><path d="M85.394,57.895c0.07,-0.15 0.243,-0.222 0.399,-0.168c0.157,0.055 0.246,0.22 0.208,0.381c-0.927,3.51 -2.859,6.78 -5.734,9.337c-0.271,0.236 -0.628,0.349 -0.986,0.313c-0.358,-0.036 -0.685,-0.219 -0.904,-0.504c-0.007,0.005 -0.007,0.005 -0.007,0.004c-0.415,-0.541 -0.326,-1.315 0.201,-1.748c3.673,-2.997 5.734,-5.786 6.823,-7.615Z"/><path d="M39.843,14.203c-0.165,0.015 -0.314,-0.099 -0.345,-0.262c-0.03,-0.162 0.067,-0.322 0.226,-0.369c3.503,-0.953 7.3,-0.915 10.951,0.297c0.34,0.117 0.617,0.37 0.764,0.698c0.148,0.328 0.154,0.702 0.016,1.035c0.007,0.003 0.007,0.003 0.007,0.004c-0.261,0.63 -0.976,0.94 -1.615,0.7c-4.431,-1.683 -7.876,-2.074 -10.004,-2.103Z"/><path d="M15,59.368c0.014,0.165 -0.099,0.314 -0.262,0.345c-0.163,0.031 -0.323,-0.067 -0.369,-0.226c-0.953,-3.503 -0.914,-7.301 0.297,-10.953c0.117,-0.34 0.37,-0.617 0.698,-0.764c0.328,-0.148 0.703,-0.154 1.035,-0.016c0.003,-0.007 0.003,-0.007 0.003,-0.007c0.631,0.261 0.941,0.976 0.7,1.615c-1.683,4.432 -2.073,7.878 -2.102,10.006Z"/><path d="M76.306,74.427c0.136,-0.094 0.322,-0.071 0.43,0.055c0.108,0.125 0.104,0.313 -0.011,0.433c-2.557,2.577 -5.864,4.442 -9.632,5.219c-0.353,0.068 -0.719,-0.012 -1.011,-0.222c-0.292,-0.21 -0.484,-0.532 -0.531,-0.889c-0.008,0.001 -0.008,0.001 -0.008,0.001c-0.089,-0.677 0.375,-1.303 1.049,-1.414c4.678,-0.759 7.857,-2.143 9.714,-3.183Z"/><path d="M41.299,84.593c0.15,0.071 0.222,0.243 0.168,0.4c-0.055,0.156 -0.22,0.246 -0.381,0.207c-3.509,-0.926 -6.779,-2.859 -9.335,-5.734c-0.236,-0.272 -0.349,-0.629 -0.313,-0.986c0.036,-0.358 0.218,-0.685 0.504,-0.904c-0.005,-0.007 -0.005,-0.007 -0.005,-0.007c0.542,-0.416 1.316,-0.327 1.749,0.201c2.996,3.673 5.784,5.735 7.613,6.823Z"/><path d="M23.709,23.976c-0.136,0.095 -0.322,0.072 -0.43,-0.054c-0.108,-0.126 -0.103,-0.313 0.011,-0.433c2.557,-2.577 5.865,-4.442 9.632,-5.219c0.353,-0.069 0.719,0.012 1.011,0.222c0.292,0.21 0.484,0.532 0.531,0.888c0.008,-0 0.008,-0 0.008,0c0.089,0.677 -0.375,1.303 -1.048,1.414c-4.679,0.758 -7.858,2.143 -9.715,3.182Z"/><path d="M13.562,49.963c-0.029,0.163 -0.177,0.278 -0.343,0.266c-0.165,-0.013 -0.294,-0.148 -0.298,-0.314c-0.014,-3.631 1.006,-7.289 3.122,-10.503c0.201,-0.298 0.516,-0.5 0.871,-0.558c0.356,-0.057 0.719,0.034 1.004,0.253c0.005,-0.006 0.005,-0.006 0.006,-0.006c0.541,0.416 0.655,1.186 0.258,1.741c-2.773,3.846 -4.042,7.073 -4.62,9.121Z"/><path d="M68.882,80.376c0.156,-0.056 0.33,0.014 0.401,0.164c0.072,0.149 0.019,0.329 -0.122,0.415c-3.137,1.827 -6.815,2.773 -10.655,2.548c-0.359,-0.025 -0.691,-0.197 -0.919,-0.476c-0.227,-0.279 -0.33,-0.639 -0.283,-0.996c-0.008,-0.001 -0.008,-0.001 -0.008,-0.002c0.09,-0.676 0.7,-1.161 1.379,-1.094c4.716,0.479 8.145,-0.036 10.207,-0.559Z"/><path d="M32.436,81.137c0.127,0.107 0.153,0.293 0.059,0.43c-0.093,0.137 -0.275,0.181 -0.421,0.101c-3.15,-1.803 -5.808,-4.516 -7.533,-7.955c-0.158,-0.323 -0.175,-0.697 -0.047,-1.034c0.127,-0.336 0.388,-0.605 0.72,-0.743c-0.003,-0.007 -0.002,-0.007 -0.002,-0.007c0.631,-0.262 1.355,0.025 1.637,0.647c1.943,4.324 4.103,7.036 5.587,8.561Z"/><path d="M31.133,18.028c-0.156,0.056 -0.329,-0.015 -0.401,-0.164c-0.072,-0.149 -0.019,-0.329 0.122,-0.416c3.137,-1.827 6.815,-2.772 10.655,-2.547c0.359,0.025 0.691,0.197 0.919,0.476c0.228,0.278 0.33,0.639 0.283,0.995c0.008,0.002 0.008,0.002 0.008,0.002c-0.089,0.677 -0.699,1.161 -1.379,1.094c-4.716,-0.478 -8.144,0.036 -10.207,0.56Z"/><path d="M18.823,68.08c0.056,0.156 -0.014,0.329 -0.164,0.401c-0.149,0.072 -0.329,0.019 -0.415,-0.123c-1.827,-3.137 -2.772,-6.816 -2.547,-10.657c0.025,-0.358 0.198,-0.691 0.476,-0.918c0.279,-0.228 0.639,-0.33 0.996,-0.283c0.001,-0.008 0.001,-0.008 0.001,-0.008c0.677,0.089 1.161,0.699 1.094,1.378c-0.478,4.717 0.036,8.147 0.559,10.21Z"/><path d="M81.938,66.76c0.107,-0.127 0.293,-0.153 0.429,-0.059c0.137,0.093 0.181,0.275 0.102,0.421c-1.803,3.151 -4.515,5.809 -7.954,7.535c-0.323,0.157 -0.697,0.174 -1.034,0.047c-0.336,-0.128 -0.605,-0.389 -0.743,-0.721c-0.007,0.003 -0.007,0.003 -0.007,0.002c-0.261,-0.63 0.025,-1.355 0.647,-1.636c4.323,-1.944 7.035,-4.105 8.56,-5.589Z"/><path d="M49.246,12.764c-0.163,-0.029 -0.278,-0.177 -0.265,-0.342c0.012,-0.165 0.148,-0.294 0.314,-0.299c3.63,-0.013 7.287,1.007 10.5,3.122c0.299,0.202 0.5,0.517 0.558,0.872c0.058,0.355 -0.033,0.718 -0.252,1.004c0.006,0.005 0.006,0.005 0.005,0.005c-0.415,0.542 -1.186,0.656 -1.741,0.258c-3.844,-2.772 -7.071,-4.041 -9.119,-4.62Z"/><path d="M50.754,85.637c0.163,0.03 0.278,0.177 0.265,0.343c-0.012,0.165 -0.148,0.294 -0.314,0.298c-3.63,0.014 -7.287,-1.006 -10.5,-3.122c-0.299,-0.201 -0.5,-0.516 -0.558,-0.871c-0.058,-0.355 0.033,-0.719 0.252,-1.004c-0.006,-0.005 -0.006,-0.005 -0.005,-0.006c0.415,-0.541 1.186,-0.655 1.741,-0.258c3.844,2.773 7.071,4.042 9.119,4.62Z"/><path d="M18.077,31.644c-0.107,0.127 -0.292,0.152 -0.429,0.059c-0.137,-0.094 -0.181,-0.276 -0.102,-0.421c1.803,-3.151 4.516,-5.809 7.954,-7.535c0.323,-0.157 0.698,-0.174 1.034,-0.047c0.336,0.128 0.605,0.388 0.743,0.721c0.007,-0.003 0.008,-0.003 0.008,-0.003c0.261,0.631 -0.026,1.355 -0.647,1.637c-4.324,1.944 -7.036,4.104 -8.561,5.589Z"/></g></svg>