<?xml version="1.0" encoding="UTF-8" standalone="no"?><!DOCTYPE svg PUBLIC "-//W3C//DTD SVG 1.1//EN" "http://www.w3.org/Graphics/SVG/1.1/DTD/svg11.dtd"><svg width="100%" height="100%" viewBox="0 0 100 100" version="1.1" xmlns="http://www.w3.org/2000/svg" xmlns:xlink="http://www.w3.org/1999/xlink" xml:space="preserve" xmlns:serif="http://www.serif.com/" style="fill-rule:evenodd;clip-rule:evenodd;stroke-linejoin:round;stroke-miterlimit:2;"><rect id="_64---snap-to-grid" serif:id="64 - snap to grid" x="0" y="0" width="100" height="100" style="fill:none;"/><path d="M47.225,50.178l11.972,-11.971c0.204,-0.174 0.248,-0.232 0.492,-0.351c0.547,-0.268 1.224,-0.24 1.747,0.072c0.233,0.139 0.272,0.201 0.462,0.391c0.059,0.082 0.117,0.164 0.176,0.247c0.118,0.241 0.164,0.298 0.22,0.563c0.083,0.397 0.031,0.819 -0.148,1.184c-0.119,0.244 -0.177,0.288 -0.351,0.492l-11.971,11.972l5.883,-0c0.065,0.001 0.081,0 0.146,0.006c0.073,0.005 0.146,0.016 0.217,0.03c0.381,0.077 0.73,0.282 0.999,0.568c0.422,0.485 0.579,1.172 0.394,1.773c-0.228,0.745 -0.97,1.282 -1.756,1.298l-10.319,-0c-0.031,-0.001 -0.061,-0.002 -0.091,-0.005c-0.125,-0.004 -0.252,-0.023 -0.379,-0.056c-0.126,-0.034 -0.247,-0.082 -0.361,-0.143c-0.128,-0.062 -0.248,-0.139 -0.357,-0.232c-0.226,-0.191 -0.395,-0.44 -0.501,-0.715c-0.08,-0.185 -0.131,-0.383 -0.144,-0.59c-0.002,-0.032 -0.004,-0.064 -0.005,-0.097l0,-10.319c0.015,-0.74 0.474,-1.436 1.16,-1.708c0.677,-0.269 1.499,-0.079 2.015,0.448c0.279,0.308 0.461,0.7 0.494,1.114c0.005,0.065 0.005,0.081 0.006,0.146l0,5.883Z"/><path d="M34.321,60.126l-17.482,0c-0.254,-0.02 -0.322,-0.01 -0.567,-0.09c-0.55,-0.178 -1.001,-0.629 -1.18,-1.179c-0.08,-0.245 -0.07,-0.314 -0.09,-0.568l-0,-17.481c0.02,-0.255 0.01,-0.323 0.09,-0.568c0.179,-0.55 0.629,-1.001 1.18,-1.18c0.245,-0.079 0.313,-0.07 0.567,-0.09l17.482,0c0.095,0.008 0.191,0.015 0.287,0.023c0.248,0.06 0.317,0.061 0.547,0.178c0.426,0.217 0.764,0.609 0.913,1.069c0.08,0.245 0.07,0.313 0.09,0.568l-0,17.481c-0.02,0.254 -0.01,0.323 -0.09,0.568c-0.179,0.55 -0.629,1 -1.18,1.179c-0.245,0.08 -0.313,0.07 -0.567,0.09Zm5.555,23.037l-0,-17.482c0.02,-0.254 0.01,-0.322 0.09,-0.567c0.178,-0.55 0.629,-1.001 1.179,-1.18c0.245,-0.08 0.314,-0.07 0.568,-0.09l17.481,0c0.255,0.02 0.323,0.01 0.568,0.09c0.55,0.179 1.001,0.629 1.18,1.18c0.079,0.245 0.07,0.313 0.09,0.567l-0,17.482c-0.008,0.095 -0.015,0.191 -0.023,0.287c-0.06,0.248 -0.061,0.317 -0.178,0.547c-0.219,0.43 -0.611,0.764 -1.069,0.913c-0.245,0.08 -0.313,0.07 -0.568,0.09l-17.481,-0c-0.254,-0.02 -0.323,-0.01 -0.568,-0.09c-0.55,-0.179 -1.001,-0.629 -1.179,-1.18c-0.08,-0.245 -0.07,-0.313 -0.09,-0.567Zm-24.874,-0l-0,-17.482c0.02,-0.254 0.01,-0.322 0.09,-0.567c0.179,-0.55 0.629,-1.001 1.18,-1.18c0.245,-0.08 0.313,-0.07 0.567,-0.09l17.482,0c0.254,0.02 0.322,0.01 0.567,0.09c0.55,0.179 1.001,0.629 1.18,1.18c0.08,0.245 0.07,0.313 0.09,0.567l-0,17.482c-0.008,0.095 -0.015,0.191 -0.023,0.287c-0.059,0.248 -0.06,0.317 -0.177,0.547c-0.218,0.426 -0.61,0.764 -1.07,0.913c-0.245,0.08 -0.313,0.07 -0.567,0.09l-17.482,-0c-0.254,-0.02 -0.322,-0.01 -0.567,-0.09c-0.55,-0.179 -1.001,-0.629 -1.18,-1.18c-0.08,-0.245 -0.07,-0.313 -0.09,-0.567Zm17.481,-40.518l-13.806,0l-0,13.807l13.806,-0l0,-13.807Zm24.874,38.68l-0,-13.806l-13.807,-0l0,13.806l13.807,0Zm-24.874,0l0,-13.806l-13.806,-0l-0,13.806l13.806,0Z"/><path d="M63.842,34.319l0,-17.482c0.02,-0.254 0.01,-0.322 0.09,-0.567c0.179,-0.55 0.629,-1.001 1.18,-1.18c0.245,-0.08 0.313,-0.07 0.567,-0.09l17.482,-0c0.254,0.02 0.322,0.01 0.567,0.09c0.55,0.179 1.001,0.629 1.18,1.18c0.08,0.245 0.07,0.313 0.09,0.567l0,17.482c-0.008,0.095 -0.015,0.191 -0.023,0.287c-0.059,0.248 -0.06,0.317 -0.177,0.547c-0.218,0.426 -0.61,0.764 -1.07,0.913c-0.245,0.08 -0.313,0.07 -0.567,0.09l-17.482,-0c-0.254,-0.02 -0.322,-0.01 -0.567,-0.09c-0.55,-0.179 -1.001,-0.629 -1.18,-1.18c-0.08,-0.245 -0.07,-0.313 -0.09,-0.567Zm17.481,-1.838l0,-13.806l-13.806,-0l-0,13.806l13.806,0Z"/></svg>