<?xml version="1.0" encoding="UTF-8" standalone="no"?><!DOCTYPE svg PUBLIC "-//W3C//DTD SVG 1.1//EN" "http://www.w3.org/Graphics/SVG/1.1/DTD/svg11.dtd"><svg width="100%" height="100%" viewBox="0 0 101 101" version="1.1" xmlns="http://www.w3.org/2000/svg" xmlns:xlink="http://www.w3.org/1999/xlink" xml:space="preserve" xmlns:serif="http://www.serif.com/" style="fill-rule:evenodd;clip-rule:evenodd;stroke-linejoin:round;stroke-miterlimit:2;"><rect id="_64---calendar" serif:id="64 - calendar" x="0.46" y="0.276" width="100" height="100" style="fill:none;"/><g><path d="M81.915,24.039c-0,-4.252 -3.447,-7.698 -7.698,-7.698l-53.768,-0c-4.251,-0 -7.698,3.446 -7.698,7.698l0,46.221c0,4.252 3.447,7.698 7.698,7.698l53.768,0c4.251,0 7.698,-3.446 7.698,-7.698l-0,-46.221Zm-18.757,-3.369c2.269,-0 4.111,1.841 4.111,4.11c-0,2.269 -1.842,4.111 -4.111,4.111c-2.269,-0 -4.11,-1.842 -4.11,-4.111c-0,-2.269 1.841,-4.11 4.11,-4.11Zm-31.65,-0c2.268,-0 4.11,1.841 4.11,4.11c0,2.269 -1.842,4.111 -4.11,4.111c-2.269,-0 -4.111,-1.842 -4.111,-4.111c0,-2.269 1.842,-4.11 4.111,-4.11Z"/><path d="M83.84,23.369c2.562,1.25 4.328,3.88 4.328,6.923l0,46.222c0,4.251 -3.446,7.698 -7.698,7.698l-53.767,-0c-3.044,-0 -5.674,-1.766 -6.924,-4.329l56.363,0c4.251,0 7.698,-3.446 7.698,-7.698l-0,-48.816Z"/></g></svg>