<?xml version="1.0" encoding="UTF-8" standalone="no"?><!DOCTYPE svg PUBLIC "-//W3C//DTD SVG 1.1//EN" "http://www.w3.org/Graphics/SVG/1.1/DTD/svg11.dtd"><svg width="100%" height="100%" viewBox="0 0 101 101" version="1.1" xmlns="http://www.w3.org/2000/svg" xmlns:xlink="http://www.w3.org/1999/xlink" xml:space="preserve" xmlns:serif="http://www.serif.com/" style="fill-rule:evenodd;clip-rule:evenodd;stroke-linejoin:round;stroke-miterlimit:2;"><rect id="_68---wonder" serif:id="68 - wonder" x="0.72" y="0.208" width="100" height="100" style="fill:none;"/><circle cx="40.179" cy="41.099" r="8.582"/><circle cx="69.734" cy="41.099" r="8.582"/><path d="M8.602,50.208c-0,-23.246 18.872,-42.118 42.118,-42.118c23.245,-0 42.117,18.872 42.117,42.118c0,23.245 0,42.117 -42.117,42.117c-42.118,0 -42.118,-18.872 -42.118,-42.117Zm42.756,16.501c1.434,0 2.597,1.504 2.597,3.357c0,1.853 -1.163,3.357 -2.597,3.357c-1.433,0 -2.596,-1.504 -2.596,-3.357c-0,-1.853 1.163,-3.357 2.596,-3.357Zm-23.742,-22.629c0,-6.934 5.629,-12.563 12.563,-12.563c6.934,-0 12.564,5.629 12.564,12.563c-0,6.934 -5.63,12.564 -12.564,12.564c-6.934,-0 -12.563,-5.63 -12.563,-12.564Zm29.554,0c0,-6.934 5.63,-12.563 12.564,-12.563c6.934,-0 12.563,5.629 12.563,12.563c0,6.934 -5.629,12.564 -12.563,12.564c-6.934,-0 -12.564,-5.63 -12.564,-12.564Z"/></svg>