<?xml version="1.0" encoding="UTF-8" standalone="no"?><!DOCTYPE svg PUBLIC "-//W3C//DTD SVG 1.1//EN" "http://www.w3.org/Graphics/SVG/1.1/DTD/svg11.dtd"><svg width="100%" height="100%" viewBox="0 0 100 100" version="1.1" xmlns="http://www.w3.org/2000/svg" xmlns:xlink="http://www.w3.org/1999/xlink" xml:space="preserve" xmlns:serif="http://www.serif.com/" style="fill-rule:evenodd;clip-rule:evenodd;stroke-linejoin:round;stroke-miterlimit:2;"><rect id="_32---sound-wave" serif:id="32 - sound wave" x="0" y="0" width="100" height="100" style="fill:none;"/><path d="M14.713,49.888c0.014,-5.244 0.165,-10.863 2.837,-15.162c0.907,-1.458 2.661,-2.774 4.56,-1.768c1.292,0.684 2.02,2.059 2.549,3.351c1.71,4.176 2.028,8.846 2.044,13.474c0.018,4.905 -0.194,9.914 -2.272,14.418c-0.086,0.185 -0.176,0.368 -0.271,0.547c-0.074,0.139 -0.152,0.277 -0.233,0.412c-0.931,1.547 -2.811,3.003 -4.827,1.748c-1.851,-1.152 -2.528,-3.432 -3.07,-5.412c-1.025,-3.753 -1.32,-7.666 -1.317,-11.608Zm3.27,0.203c0.011,3.878 0.272,7.823 1.485,11.484c0.29,0.875 0.592,1.798 1.231,2.448c0,-0 0.688,-0.916 1.065,-1.923c1.458,-3.89 1.691,-8.174 1.669,-12.404c-0.021,-4.05 -0.29,-8.223 -1.706,-11.91c-0.252,-0.656 -0.541,-1.338 -0.997,-1.811c0,-0 -0.309,0.318 -0.457,0.567c-1.323,2.235 -1.672,4.979 -1.978,7.681c-0.22,1.948 -0.313,3.93 -0.312,5.868Z"/><path d="M85.287,50.103c-0.014,5.244 -0.165,10.863 -2.837,15.161c-0.907,1.459 -2.661,2.774 -4.56,1.768c-1.292,-0.684 -2.02,-2.059 -2.549,-3.35c-1.71,-4.177 -2.028,-8.847 -2.044,-13.475c-0.018,-4.905 0.194,-9.913 2.272,-14.418c0.086,-0.184 0.176,-0.367 0.271,-0.547c0.074,-0.139 0.152,-0.277 0.233,-0.412c0.931,-1.547 2.811,-3.003 4.827,-1.748c1.851,1.153 2.528,3.432 3.07,5.412c1.025,3.753 1.32,7.667 1.317,11.609Zm-3.27,-0.204c-0.011,-3.878 -0.272,-7.823 -1.485,-11.483c-0.29,-0.876 -0.592,-1.799 -1.231,-2.448c-0,-0 -0.688,0.915 -1.065,1.922c-1.458,3.891 -1.691,8.175 -1.669,12.404c0.021,4.051 0.29,8.223 1.706,11.91c0.252,0.656 0.541,1.338 0.997,1.812c-0,-0 0.309,-0.319 0.457,-0.568c1.323,-2.234 1.672,-4.978 1.978,-7.681c0.22,-1.948 0.313,-3.929 0.312,-5.868Z"/><path d="M29.347,49.832c0.012,-6.772 0.258,-13.628 1.863,-20.131c0.647,-2.621 1.616,-5.809 4.089,-5.854c1.871,-0.033 3.048,2.171 3.675,4.087c0.915,2.797 1.331,5.731 1.666,8.666c1.096,9.609 1.094,19.384 -0.282,28.983c-0.439,3.066 -0.845,6.313 -2.436,8.857c-0.665,1.061 -1.888,1.992 -3.252,1.603c-1.998,-0.569 -2.833,-3.22 -3.46,-5.759c-1.634,-6.618 -1.866,-13.567 -1.863,-20.452Zm3.27,0.317c0.011,6.426 0.215,12.904 1.728,19.187c0.248,1.029 0.526,2.059 0.989,3.005l0.008,0.016c0.701,-1.405 1.021,-2.976 1.327,-4.539c1.549,-7.915 1.636,-16.131 1.249,-24.162c-0.232,-4.824 -0.548,-9.722 -1.926,-14.304c-0.176,-0.584 -0.374,-1.161 -0.642,-1.708c0,0 -0.635,1.503 -0.965,2.841c-0.891,3.608 -1.25,7.328 -1.497,11.052c-0.191,2.867 -0.272,5.756 -0.271,8.612Z"/><path d="M70.653,50.158c-0.012,6.773 -0.258,13.628 -1.863,20.132c-0.647,2.621 -1.616,5.809 -4.089,5.853c-1.871,0.033 -3.048,-2.171 -3.675,-4.086c-0.915,-2.797 -1.331,-5.732 -1.666,-8.667c-1.096,-9.609 -1.094,-19.383 0.282,-28.983c0.439,-3.066 0.845,-6.313 2.436,-8.856c0.665,-1.062 1.888,-1.993 3.252,-1.604c1.998,0.57 2.833,3.22 3.46,5.759c1.634,6.618 1.866,13.567 1.863,20.452Zm-3.27,-0.317c-0.011,-6.426 -0.215,-12.904 -1.728,-19.187c-0.248,-1.029 -0.526,-2.059 -0.989,-3.004l-0.008,-0.016c-0.701,1.404 -1.021,2.975 -1.327,4.538c-1.549,7.915 -1.636,16.131 -1.249,24.163c0.232,4.823 0.548,9.721 1.926,14.304c0.176,0.583 0.374,1.161 0.642,1.707c-0,-0 0.635,-1.503 0.965,-2.84c0.891,-3.609 1.25,-7.329 1.497,-11.052c0.191,-2.868 0.272,-5.756 0.271,-8.613Z"/><path d="M43.981,49.776c0.011,-8.948 0.242,-17.961 1.777,-26.718c0.389,-2.224 0.75,-4.55 1.905,-6.441c0.754,-1.236 2.352,-2.067 3.727,-1.035c1.6,1.202 1.976,3.447 2.445,5.62c0.844,3.917 1.234,7.931 1.541,11.94c0.857,11.215 0.858,22.482 -0,33.701c-0.35,4.565 -0.737,9.164 -1.932,13.56c-0.499,1.833 -1.057,3.97 -2.943,4.426c-1.554,0.376 -2.904,-1.235 -3.534,-2.963c-1.359,-3.725 -1.716,-7.785 -2.111,-11.817c-0.661,-6.74 -0.877,-13.572 -0.875,-20.273Zm3.27,0.43c0.011,8.645 0.239,17.344 1.667,25.803c0.26,1.54 0.553,3.08 1.056,4.553c-0,-0 0.562,-1.859 0.876,-3.52c1.615,-8.542 1.813,-17.296 1.849,-25.985c0.036,-8.727 -0.185,-17.464 -1.506,-26.096c-0.287,-1.874 -0.606,-3.756 -1.214,-5.538c-0,0 -0.305,0.924 -0.513,1.798c-1.334,5.61 -1.66,11.452 -1.943,17.228c-0.192,3.917 -0.273,7.847 -0.272,11.757Z"/></svg>