<?xml version="1.0" encoding="UTF-8" standalone="no"?><!DOCTYPE svg PUBLIC "-//W3C//DTD SVG 1.1//EN" "http://www.w3.org/Graphics/SVG/1.1/DTD/svg11.dtd"><svg width="100%" height="100%" viewBox="0 0 100 101" version="1.1" xmlns="http://www.w3.org/2000/svg" xmlns:xlink="http://www.w3.org/1999/xlink" xml:space="preserve" xmlns:serif="http://www.serif.com/" style="fill-rule:evenodd;clip-rule:evenodd;stroke-linejoin:round;stroke-miterlimit:2;"><rect id="_71---mail" serif:id="71 - mail" x="0" y="0.5" width="100" height="100" style="fill:none;"/><g><path d="M93.356,22.168l0.035,0.001c0.069,0.004 0.138,0.011 0.206,0.022c0.056,0.01 0.064,0.012 0.064,0.012l0.061,0.015c0.123,0.033 0.29,0.101 0.29,0.101l0.06,0.029c-0,-0 0.036,0.018 0.084,0.045c0.048,0.029 0.056,0.034 0.056,0.034c0.026,0.017 0.152,0.109 0.152,0.109l0.031,0.025c0.038,0.033 0.159,0.143 0.245,0.253l0.118,0.17c0.015,0.026 0.051,0.092 0.051,0.092c0.028,0.054 0.061,0.13 0.061,0.13c0.052,0.128 0.09,0.261 0.111,0.399c0,-0 0.018,0.122 0.019,0.246l-0,53.298c-0.001,0.14 -0.021,0.263 -0.021,0.263c-0.037,0.213 -0.057,0.239 -0.057,0.239c-0.042,0.131 -0.13,0.305 -0.13,0.305c-0.031,0.054 -0.074,0.122 -0.074,0.122c-0.095,0.14 -0.108,0.146 -0.141,0.184c-0.112,0.127 -0.259,0.238 -0.259,0.238c-0.163,0.116 -0.339,0.208 -0.532,0.265l-0.178,0.042c-0.091,0.015 -0.091,0.013 -0.091,0.013l-0.081,0.009c-0.038,0.002 -0.076,0.003 -0.114,0.004l-86.644,-0c-0.138,-0.003 -0.258,-0.022 -0.258,-0.022c-0.103,-0.017 -0.24,-0.056 -0.24,-0.056c-0.115,-0.039 -0.088,-0.029 -0.156,-0.059c-0,0 -0.042,-0.018 -0.053,-0.023c-0.052,-0.025 -0.059,-0.03 -0.059,-0.03l-0.157,-0.092c-0.042,-0.029 -0.098,-0.07 -0.098,-0.07c-0.068,-0.053 -0.094,-0.077 -0.134,-0.115c-0.157,-0.15 -0.19,-0.215 -0.19,-0.215c-0.021,-0.029 -0.163,-0.24 -0.233,-0.436l-0.027,-0.08c-0.046,-0.158 -0.071,-0.321 -0.073,-0.486l-0,-53.298c0.002,-0.172 0.027,-0.343 0.079,-0.505c0,-0 0.089,-0.275 0.254,-0.497l0.049,-0.063c0.113,-0.134 0.241,-0.252 0.388,-0.347l0.158,-0.091c0.084,-0.04 0.102,-0.051 0.202,-0.086c0.22,-0.077 0.29,-0.073 0.29,-0.073l0.097,-0.013c0.058,-0.006 0.064,-0.006 0.064,-0.006c0.03,-0.001 0.061,-0.002 0.091,-0.003l86.656,0c0.009,0 0.019,0 0.028,0.001Zm-85.905,2.45l0,51.764l85.098,-0l-0,-51.764l-85.098,0Z"/><path d="M93.963,22.182c0.219,0.058 0.284,0.057 0.477,0.181c0.503,0.325 0.701,1.044 0.428,1.584c-0.104,0.205 -0.161,0.236 -0.32,0.396c-12.382,10.071 -24.773,20.13 -37.144,30.213c-2.014,1.618 -4.53,2.546 -7.095,2.615c-2.777,0.074 -5.557,-0.858 -7.738,-2.636l-37.119,-30.192c-0.06,-0.06 -0.127,-0.115 -0.181,-0.181c-0.322,-0.399 -0.356,-1.003 -0.072,-1.439c0.327,-0.501 1.039,-0.701 1.585,-0.421c0.076,0.039 0.143,0.093 0.215,0.14c12.38,10.069 24.769,20.127 37.139,30.208c2.125,1.708 4.935,2.443 7.685,1.895c1.462,-0.292 2.857,-0.947 4.02,-1.88l0.039,-0.031l37.119,-30.192c0.072,-0.047 0.139,-0.101 0.215,-0.14c0.204,-0.105 0.268,-0.097 0.492,-0.133c0.085,0.004 0.17,0.008 0.255,0.013Z"/><path d="M41.034,35.791c1.496,0.023 2.956,0.903 3.662,2.257c-0,0 0.124,0.245 0.207,0.467c0.609,1.629 0.085,3.622 -1.317,4.741c-0,-0 -0.238,0.185 -0.457,0.316c-1.495,0.896 -3.555,0.742 -4.909,-0.443c-1.216,-1.065 -1.749,-2.857 -1.217,-4.467c-0,-0 0.062,-0.183 0.128,-0.336c0.297,-0.694 0.785,-1.3 1.401,-1.746c-0,0 0.38,-0.264 0.724,-0.419c0.532,-0.24 1.115,-0.364 1.697,-0.37c0.04,-0 0.04,-0 0.081,0Zm-0.067,2.451c-0.959,0.011 -1.853,0.904 -1.709,1.969c0.134,0.998 1.255,1.826 2.366,1.38c0.885,-0.355 1.408,-1.487 0.878,-2.447c-0.294,-0.532 -0.874,-0.887 -1.49,-0.902c-0.015,-0 -0.03,-0 -0.045,-0Z"/><path d="M59.076,35.791c1.772,0.027 3.454,1.258 3.966,3.016c0.407,1.395 0.025,2.997 -0.99,4.061c-0.376,0.394 -0.829,0.714 -1.33,0.938c0,-0 -0.171,0.075 -0.334,0.131c-0.237,0.083 -0.482,0.143 -0.73,0.181c-0,0 -0.325,0.046 -0.608,0.048c-1.481,0.011 -2.93,-0.818 -3.673,-2.123c-0.933,-1.641 -0.607,-3.908 0.885,-5.215c0.749,-0.655 1.732,-1.026 2.733,-1.037c0.04,-0 0.04,-0 0.081,0Zm-0.067,2.451c-1.158,0.013 -2.245,1.365 -1.473,2.636c0.418,0.689 1.348,1.028 2.131,0.713c0.827,-0.332 1.326,-1.363 0.967,-2.258c-0.244,-0.608 -0.84,-1.058 -1.534,-1.089c-0.015,-0.001 -0.03,-0.001 -0.045,-0.002c-0.015,-0 -0.031,-0 -0.046,-0Z"/><path d="M65.285,59.561c0.217,0.062 0.282,0.062 0.472,0.191c0.496,0.335 0.685,1.049 0.396,1.592c-0.108,0.203 -0.165,0.233 -0.328,0.39l-0.06,0.047c-1.917,1.487 -3.965,2.816 -6.175,3.861c-2.612,1.234 -5.464,2.053 -8.365,2.236c-3.348,0.212 -6.73,-0.454 -9.827,-1.764c-2.614,-1.106 -4.996,-2.622 -7.229,-4.384l-0.183,-0.179c-0.048,-0.071 -0.103,-0.138 -0.142,-0.213c-0.319,-0.607 -0.025,-1.448 0.631,-1.709c0.319,-0.127 0.689,-0.112 0.996,0.04c0.123,0.061 0.231,0.148 0.332,0.228l0.058,0.044c2.074,1.619 4.328,3.029 6.745,4.021c1.95,0.799 4.043,1.328 6.178,1.467c3.62,0.235 7.208,-0.722 10.264,-2.25c1.868,-0.933 3.619,-2.089 5.269,-3.377l0.218,-0.136c0.24,-0.087 0.241,-0.088 0.494,-0.123c0.085,0.006 0.171,0.012 0.256,0.018Z"/></g></svg>