<?xml version="1.0" encoding="UTF-8" standalone="no"?>
<!DOCTYPE svg PUBLIC "-//W3C//DTD SVG 1.1//EN" "http://www.w3.org/Graphics/SVG/1.1/DTD/svg11.dtd">
<svg width="100%" height="100%" viewBox="0 0 101 101" version="1.1" xmlns="http://www.w3.org/2000/svg" xmlns:xlink="http://www.w3.org/1999/xlink" xml:space="preserve" xmlns:serif="http://www.serif.com/" style="fill-rule:evenodd;clip-rule:evenodd;stroke-linejoin:round;stroke-miterlimit:2;">
    <g transform="matrix(1,0,0,1,-112,-112)">
        <g id="_11---happy-nerd" serif:id="11 - happy nerd" transform="matrix(1,0,0,1,112.5,112.5)">
            <rect x="0" y="0" width="100" height="100" style="fill:none;"/>
            <g id="icons">
                <g transform="matrix(1,0,0,1,74.9028,38.8186)">
                    <path d="M0,0C0,2.147 -1.741,3.888 -3.888,3.888C-6.035,3.888 -7.776,2.147 -7.776,0C-7.776,-2.147 -6.035,-3.888 -3.888,-3.888C-1.741,-3.888 0,-2.147 0,0" style="fill-rule:nonzero;"/>
                </g>
                <g transform="matrix(1,0,0,1,32.8731,38.8186)">
                    <path d="M0,0C0,2.147 -1.741,3.888 -3.888,3.888C-6.035,3.888 -7.776,2.147 -7.776,0C-7.776,-2.147 -6.035,-3.888 -3.888,-3.888C-1.741,-3.888 0,-2.147 0,0" style="fill-rule:nonzero;"/>
                </g>
                <g transform="matrix(1,0,0,1,60.813,79.6555)">
                    <path d="M0,-12.267C-2.152,-8.525 -6.187,-6.004 -10.813,-6.004C-15.44,-6.004 -19.474,-8.525 -21.626,-12.267L-28.217,-12.267C-25.667,-5.117 -18.839,0 -10.813,0C-2.788,0 4.041,-5.117 6.591,-12.267L0,-12.267Z" style="fill-rule:nonzero;"/>
                </g>
                <g transform="matrix(1,0,0,1,71.0151,26.3495)">
                    <path d="M0,24.939C-6.887,24.939 -12.47,19.356 -12.47,12.469C-12.47,5.583 -6.887,-0.001 0,-0.001C6.887,-0.001 12.47,5.583 12.47,12.469C12.47,19.356 6.887,24.939 0,24.939M-42.03,24.939C-48.917,24.939 -54.5,19.356 -54.5,12.469C-54.5,5.583 -48.917,-0.001 -42.03,-0.001C-35.144,-0.001 -29.56,5.583 -29.56,12.469C-29.56,19.356 -35.144,24.939 -42.03,24.939M18.23,9.467C16.797,0.69 9.18,-6.005 0,-6.005C-9.182,-6.005 -16.797,0.69 -18.23,9.467L-23.8,9.467C-25.233,0.69 -32.848,-6.005 -42.03,-6.005C-51.212,-6.005 -58.827,0.69 -60.261,9.467L-66.015,9.467L-66.015,15.471L-60.261,15.471C-58.827,24.248 -51.212,30.944 -42.03,30.944C-32.848,30.944 -25.233,24.248 -23.8,15.471L-18.23,15.471C-16.797,24.248 -9.182,30.944 0,30.944C9.18,30.944 16.797,24.248 18.23,15.471L23.985,15.471L23.985,9.467L18.23,9.467Z" style="fill-rule:nonzero;"/>
                </g>
            </g>
        </g>
    </g>
</svg>
