<?xml version="1.0" encoding="UTF-8" standalone="no"?><!DOCTYPE svg PUBLIC "-//W3C//DTD SVG 1.1//EN" "http://www.w3.org/Graphics/SVG/1.1/DTD/svg11.dtd"><svg width="100%" height="100%" viewBox="0 0 100 100" version="1.1" xmlns="http://www.w3.org/2000/svg" xmlns:xlink="http://www.w3.org/1999/xlink" xml:space="preserve" xmlns:serif="http://www.serif.com/" style="fill-rule:evenodd;clip-rule:evenodd;stroke-linejoin:round;stroke-miterlimit:2;"><rect id="_53---note" serif:id="53 - note" x="0" y="0" width="100" height="100" style="fill:none;"/><g id="_53---note1" serif:id="53 - note"><path d="M8.627,94.987l-3.62,0l-0,-89.987l89.987,0l0,45.006c0,24.85 -20.144,44.994 -44.994,44.994l-41.373,0l-0,-0.013Zm79.127,-48.601c-0,-9.452 -0,-34.146 -0,-34.146c-0,0 -75.507,0 -75.507,0l0,75.348c19.141,-1.825 34.133,-17.966 34.133,-37.582l0,-3.62l41.374,0Zm-54.654,41.374l16.9,-0c19.63,-0 35.76,-14.981 37.582,-34.134c0,0 -34.105,0 -34.105,0c-1.141,14.301 -8.981,26.727 -20.377,34.134Z"/></g></svg>