<?xml version="1.0" encoding="UTF-8" standalone="no"?><!DOCTYPE svg PUBLIC "-//W3C//DTD SVG 1.1//EN" "http://www.w3.org/Graphics/SVG/1.1/DTD/svg11.dtd"><svg width="100%" height="100%" viewBox="0 0 100 100" version="1.1" xmlns="http://www.w3.org/2000/svg" xmlns:xlink="http://www.w3.org/1999/xlink" xml:space="preserve" xmlns:serif="http://www.serif.com/" style="fill-rule:evenodd;clip-rule:evenodd;stroke-linejoin:round;stroke-miterlimit:2;"><rect id="_17---reader" serif:id="17 - reader" x="0" y="0" width="100" height="100" style="fill:none;"/><g><path d="M43.727,46.113c-4.769,-0 -8.641,3.872 -8.641,8.641c-0,4.77 3.872,8.642 8.641,8.642c4.77,-0 8.642,-3.872 8.642,-8.642c-0,-4.769 -3.872,-8.641 -8.642,-8.641Zm0,2.996c3.116,0 5.645,2.53 5.645,5.645c0,3.116 -2.529,5.645 -5.645,5.645c-3.115,0 -5.645,-2.529 -5.645,-5.645c0,-3.115 2.53,-5.645 5.645,-5.645Z"/><path d="M65.713,46.113c-4.77,-0 -8.642,3.872 -8.642,8.641c0,4.77 3.872,8.642 8.642,8.642c4.769,-0 8.641,-3.872 8.641,-8.642c0,-4.769 -3.872,-8.641 -8.641,-8.641Zm-0,2.996c3.115,0 5.645,2.53 5.645,5.645c-0,3.116 -2.53,5.645 -5.645,5.645c-3.116,0 -5.645,-2.529 -5.645,-5.645c-0,-3.115 2.529,-5.645 5.645,-5.645Z"/><circle cx="43.207" cy="52.407" r="2.138"/><circle cx="65.192" cy="52.407" r="2.138"/><path d="M46,74.091c6.673,3.393 12.099,-0.668 12.099,-0.668c0.666,-0.491 0.808,-1.43 0.317,-2.095c-0.49,-0.666 -1.429,-0.808 -2.095,-0.317c0,-0 -4.237,3.06 -9.371,0.19c0.035,-1.529 -0.606,-2.632 -0.606,-2.632c-0.397,-0.725 -1.308,-0.992 -2.034,-0.594c-0.725,0.397 -0.991,1.308 -0.593,2.034c-0,-0 0.849,1.77 -1.097,3.342c-0.643,0.519 -0.743,1.463 -0.224,2.107c0.52,0.643 1.464,0.743 2.107,0.224c0.647,-0.522 1.134,-1.059 1.497,-1.591Z"/><path d="M49.893,95l0.107,0c18.202,-0 27.641,-10.081 32.528,-21.564c4.777,-11.223 5.123,-23.812 5.123,-29.287c0,-10.167 0.911,-17.885 2.047,-26.177c0.106,-0.775 -0.401,-1.501 -1.166,-1.667l-6.167,-1.342c0.179,-1.236 0.37,-2.463 0.573,-3.68c0.072,-0.434 -0.05,-0.878 -0.335,-1.214c-0.285,-0.336 -0.703,-0.53 -1.143,-0.53l-5.979,0c0.185,-1.039 0.371,-1.948 0.554,-2.674c0.113,-0.448 0.013,-0.923 -0.271,-1.287c-0.284,-0.365 -0.72,-0.578 -1.182,-0.578c-4.578,0 -8.439,0.059 -11.656,0.64c-3.491,0.63 -6.265,1.871 -8.435,4.175c-1.704,1.808 -3.043,4.292 -4.006,7.741c-0.174,0.621 -0.335,1.275 -0.485,1.963c-0.15,-0.688 -0.311,-1.342 -0.485,-1.963c-0.963,-3.449 -2.302,-5.933 -4.006,-7.741c-2.17,-2.304 -4.944,-3.545 -8.435,-4.175c-3.217,-0.581 -7.078,-0.64 -11.656,-0.64c-0.462,0 -0.898,0.213 -1.182,0.578c-0.284,0.364 -0.384,0.839 -0.271,1.287c0.183,0.726 0.369,1.635 0.554,2.674l-5.979,0c-0.44,0 -0.858,0.194 -1.143,0.53c-0.285,0.336 -0.407,0.78 -0.335,1.214c0.203,1.217 0.394,2.444 0.573,3.68l-6.167,1.342c-0.765,0.166 -1.272,0.892 -1.166,1.667c1.136,8.292 2.047,16.01 2.047,26.177c-0,5.475 0.346,18.064 5.123,29.287c4.877,11.46 14.288,21.524 32.421,21.564Zm-31.853,-77.059l-4.583,0.997c1.065,7.91 1.888,15.449 1.888,25.211c0,5.255 0.299,17.342 4.884,28.113c4.473,10.511 13.111,19.742 29.771,19.742c16.66,-0 25.298,-9.231 29.771,-19.742c4.585,-10.771 4.884,-22.858 4.884,-28.113c-0,-9.762 0.823,-17.301 1.888,-25.211l-4.583,-0.997c-0.773,6.06 -1.261,12.344 -1.447,18.863c-0.011,0.403 -0.185,0.784 -0.48,1.058c-0.296,0.273 -0.69,0.416 -1.092,0.396c-15.106,-0.751 -22.18,0.202 -28.514,2.085c-0.002,0.001 -0.004,0.002 -0.006,0.002c-0.268,0.079 -0.561,0.084 -0.848,-0.002c-6.334,-1.883 -13.408,-2.836 -28.514,-2.085c-0.402,0.02 -0.796,-0.123 -1.092,-0.396c-0.295,-0.274 -0.469,-0.655 -0.48,-1.058c-0.186,-6.519 -0.674,-12.803 -1.447,-18.863Zm33.475,18.27c0.086,-6.463 0.493,-11.497 1.279,-15.416c0.836,-4.169 2.075,-7.013 3.877,-8.926c1.739,-1.845 3.992,-2.776 6.788,-3.28c2.624,-0.474 5.698,-0.571 9.264,-0.589c-1.159,6.019 -2.301,17.569 -2.465,22.594c-3.156,0.158 -10.749,1.035 -18.743,5.617l0,0Zm-3.03,0c-7.994,-4.582 -15.587,-5.459 -18.743,-5.617c-0.164,-5.025 -1.306,-16.575 -2.465,-22.594c3.566,0.018 6.64,0.115 9.264,0.589c2.796,0.504 5.049,1.435 6.788,3.28c1.802,1.913 3.041,4.757 3.877,8.926c0.786,3.919 1.193,8.953 1.279,15.416l-0,0Zm26.519,-23.676c-1.005,6.923 -1.842,16.536 -1.766,19.489c0.011,0.413 -0.149,0.812 -0.443,1.103c-0.293,0.291 -0.694,0.447 -1.106,0.433c-0,0 -4.597,-0.149 -10.746,1.784c4.297,-0.377 9.583,-0.457 16.624,-0.15c0.282,-7.888 1.004,-15.432 2.134,-22.659l-4.697,0Zm-50.008,0l-4.697,0c1.13,7.227 1.852,14.771 2.134,22.659c7.041,-0.307 12.327,-0.227 16.624,0.15c-6.149,-1.933 -10.746,-1.784 -10.746,-1.784c-0.412,0.014 -0.813,-0.142 -1.106,-0.433c-0.294,-0.291 -0.454,-0.69 -0.443,-1.103c0.076,-2.953 -0.761,-12.566 -1.766,-19.489Z"/></g></svg>