<?xml version="1.0" encoding="UTF-8" standalone="no"?><!DOCTYPE svg PUBLIC "-//W3C//DTD SVG 1.1//EN" "http://www.w3.org/Graphics/SVG/1.1/DTD/svg11.dtd"><svg width="100%" height="100%" viewBox="0 0 101 101" version="1.1" xmlns="http://www.w3.org/2000/svg" xmlns:xlink="http://www.w3.org/1999/xlink" xml:space="preserve" xmlns:serif="http://www.serif.com/" style="fill-rule:evenodd;clip-rule:evenodd;stroke-linejoin:round;stroke-miterlimit:2;"><rect id="_55---curious" serif:id="55 - curious" x="0.825" y="0.86" width="100" height="100" style="fill:none;"/><g><circle cx="41.849" cy="42.333" r="5.067"/><circle cx="71.403" cy="42.333" r="5.067"/><path d="M8.707,50.86c-0,-23.246 18.872,-42.118 42.118,-42.118c23.245,-0 42.117,18.872 42.117,42.118c0,23.245 0,42.118 -42.117,42.118c-42.118,-0 -42.118,-18.873 -42.118,-42.118Zm45.203,10.81c1.787,0.552 2.703,2.736 2.043,4.876c-0.66,2.139 -2.647,3.428 -4.435,2.877c-1.787,-0.551 -2.703,-2.736 -2.043,-4.875c0.66,-2.14 2.647,-3.429 4.435,-2.878Zm-26.189,-16.937c0,-6.934 5.629,-12.564 12.563,-12.564c6.934,0 12.564,5.63 12.564,12.564c-0,6.934 -5.63,12.563 -12.564,12.563c-6.934,0 -12.563,-5.629 -12.563,-12.563Zm29.554,-0c0,-6.934 5.63,-12.564 12.564,-12.564c6.934,0 12.563,5.63 12.563,12.564c0,6.934 -5.629,12.563 -12.563,12.563c-6.934,0 -12.564,-5.629 -12.564,-12.563Z"/></g></svg>