<?xml version="1.0" encoding="UTF-8" standalone="no"?><!DOCTYPE svg PUBLIC "-//W3C//DTD SVG 1.1//EN" "http://www.w3.org/Graphics/SVG/1.1/DTD/svg11.dtd"><svg width="100%" height="100%" viewBox="0 0 101 101" version="1.1" xmlns="http://www.w3.org/2000/svg" xmlns:xlink="http://www.w3.org/1999/xlink" xml:space="preserve" xmlns:serif="http://www.serif.com/" style="fill-rule:evenodd;clip-rule:evenodd;stroke-linejoin:round;stroke-miterlimit:2;"><rect id="_57---snow" serif:id="57 - snow" x="0.755" y="0.86" width="100" height="100" style="fill:none;"/><path d="M48.134,14.566l-3.961,-3.961c-1.023,-1.023 -2.684,-1.023 -3.706,0c-1.023,1.023 -1.023,2.684 -0,3.706l7.667,7.668l-0,9.799l-3.961,-3.961c-1.023,-1.023 -2.684,-1.023 -3.706,0c-1.023,1.023 -1.023,2.683 -0,3.706l7.667,7.668l-0,5.342l-15.949,-15.948l0,-10.843c0,-1.447 -1.174,-2.621 -2.62,-2.621c-1.446,-0 -2.621,1.174 -2.621,2.621l0,5.601l-4.303,-4.303c-1.023,-1.023 -2.684,-1.023 -3.706,0c-1.023,1.023 -1.023,2.683 -0,3.706l4.303,4.304l-5.602,-0c-1.446,-0 -2.62,1.174 -2.62,2.62c-0,1.447 1.174,2.621 2.62,2.621l10.843,-0l15.949,15.948l-5.343,0l-7.667,-7.667c-1.023,-1.023 -2.683,-1.023 -3.706,-0c-1.023,1.023 -1.023,2.683 -0,3.706l3.961,3.961l-9.8,0l-7.667,-7.667c-1.023,-1.023 -2.683,-1.023 -3.706,-0c-1.023,1.023 -1.023,2.683 -0,3.706l3.961,3.961l-6.086,0c-1.446,0 -2.62,1.174 -2.62,2.621c-0,1.446 1.174,2.62 2.62,2.62l6.086,0l-3.961,3.962c-1.023,1.022 -1.023,2.683 -0,3.706c1.023,1.022 2.683,1.022 3.706,-0l7.667,-7.668l9.8,0l-3.961,3.962c-1.023,1.022 -1.023,2.683 -0,3.706c1.023,1.022 2.683,1.022 3.706,-0l7.667,-7.668l5.343,0l-15.949,15.949l-10.843,-0c-1.446,-0 -2.62,1.174 -2.62,2.621c-0,1.446 1.174,2.62 2.62,2.62l5.602,0l-4.303,4.304c-1.023,1.022 -1.023,2.683 -0,3.706c1.022,1.022 2.683,1.022 3.706,-0l4.303,-4.304l0,5.602c0,1.447 1.175,2.621 2.621,2.621c1.446,-0 2.62,-1.174 2.62,-2.621l0,-10.843l15.949,-15.948l-0,5.342l-7.667,7.667c-1.023,1.023 -1.023,2.684 -0,3.707c1.022,1.022 2.683,1.022 3.706,-0l3.961,-3.962l-0,9.8l-7.667,7.667c-1.023,1.023 -1.023,2.684 -0,3.707c1.022,1.022 2.683,1.022 3.706,-0l3.961,-3.962l-0,6.086c-0,1.447 1.174,2.621 2.621,2.621c1.446,-0 2.62,-1.174 2.62,-2.621l0,-6.086l3.961,3.962c1.023,1.022 2.684,1.022 3.706,-0c1.023,-1.023 1.023,-2.684 0,-3.707l-7.667,-7.667l0,-9.8l3.961,3.962c1.023,1.022 2.684,1.022 3.706,-0c1.023,-1.023 1.023,-2.684 0,-3.707l-7.667,-7.667l0,-5.342l15.949,15.948l-0,10.843c-0,1.447 1.174,2.621 2.62,2.621c1.447,-0 2.621,-1.174 2.621,-2.621l-0,-5.602l4.303,4.304c1.023,1.022 2.684,1.022 3.706,-0c1.023,-1.023 1.023,-2.684 0,-3.706l-4.303,-4.304l5.602,0c1.446,0 2.621,-1.174 2.621,-2.62c-0,-1.447 -1.175,-2.621 -2.621,-2.621l-10.843,-0l-15.949,-15.949l5.343,0l7.667,7.668c1.023,1.022 2.684,1.022 3.706,-0c1.023,-1.023 1.023,-2.684 0,-3.706l-3.961,-3.962l9.8,0l7.667,7.668c1.023,1.022 2.683,1.022 3.706,-0c1.023,-1.023 1.023,-2.684 0,-3.706l-3.961,-3.962l6.086,0c1.446,0 2.621,-1.174 2.621,-2.62c-0,-1.447 -1.175,-2.621 -2.621,-2.621l-6.086,0l3.961,-3.961c1.023,-1.023 1.023,-2.683 0,-3.706c-1.023,-1.023 -2.683,-1.023 -3.706,-0l-7.667,7.667l-9.8,0l3.961,-3.961c1.023,-1.023 1.023,-2.683 0,-3.706c-1.022,-1.023 -2.683,-1.023 -3.706,-0l-7.667,7.667l-5.343,0l15.949,-15.948l10.843,-0c1.446,-0 2.621,-1.174 2.621,-2.621c-0,-1.446 -1.175,-2.62 -2.621,-2.62l-5.602,-0l4.303,-4.304c1.023,-1.023 1.023,-2.683 0,-3.706c-1.022,-1.023 -2.683,-1.023 -3.706,0l-4.303,4.303l-0,-5.601c-0,-1.447 -1.174,-2.621 -2.621,-2.621c-1.446,-0 -2.62,1.174 -2.62,2.621l-0,10.843l-15.949,15.948l0,-5.342l7.667,-7.668c1.023,-1.023 1.023,-2.683 0,-3.706c-1.022,-1.023 -2.683,-1.023 -3.706,0l-3.961,3.961l0,-9.799l7.667,-7.668c1.023,-1.022 1.023,-2.683 0,-3.706c-1.022,-1.023 -2.683,-1.023 -3.706,0l-3.961,3.961l0,-6.086c0,-1.446 -1.174,-2.62 -2.62,-2.62c-1.447,-0 -2.621,1.174 -2.621,2.62l-0,6.086Z"/></svg>