<?xml version="1.0" encoding="UTF-8" standalone="no"?><!DOCTYPE svg PUBLIC "-//W3C//DTD SVG 1.1//EN" "http://www.w3.org/Graphics/SVG/1.1/DTD/svg11.dtd"><svg width="100%" height="100%" viewBox="0 0 100 100" version="1.1" xmlns="http://www.w3.org/2000/svg" xmlns:xlink="http://www.w3.org/1999/xlink" xml:space="preserve" xmlns:serif="http://www.serif.com/" style="fill-rule:evenodd;clip-rule:evenodd;stroke-linejoin:round;stroke-miterlimit:2;"><rect id="_16---audiophile" serif:id="16 - audiophile" x="0" y="0" width="100" height="100" style="fill:none;"/><g><path d="M73.127,55.453c-2.398,4.016 -3.549,7.005 -3.994,11.998c-0.817,9.177 2.252,16.613 9.793,17.285c3.353,0.299 6.232,-0.975 8.503,-3.278c2.943,-2.983 4.824,-7.842 5.198,-12.787c0.491,-6.503 0.292,-15.92 -8.175,-20.263c-1.651,-0.849 -2.996,-2.198 -3.842,-3.855c-5.159,-10.228 -9.17,-26.193 -32.6,-28.988c-27.75,-3.31 -39.607,17.958 -40.782,32.561c-0.12,1.486 0.99,2.79 2.477,2.91c1.487,0.12 2.791,-0.99 2.911,-2.477c0.999,-12.423 11.145,-30.443 34.754,-27.627c20.71,2.471 23.856,17.022 28.414,26.056c0.002,0.003 0.003,0.006 0.005,0.009c1.36,2.672 3.527,4.848 6.193,6.219c0.001,0 0.002,0.001 0.003,0.001c2.865,1.47 4.235,3.845 4.874,6.383c0.742,2.947 0.571,6.108 0.378,8.664c-0.231,3.056 -1.161,6.097 -2.74,8.302c-1.26,1.761 -2.949,2.977 -5.092,2.786c-1.974,-0.176 -3.24,-1.325 -3.984,-2.996c-0.995,-2.232 -1.19,-5.216 -0.904,-8.426c0.36,-4.041 1.309,-6.455 3.25,-9.705c0.765,-1.281 0.346,-2.941 -0.934,-3.706c-1.281,-0.765 -2.942,-0.346 -3.706,0.934Z"/><path d="M28.711,78.906c0,-0 9.373,9.39 20.867,2.64c0.935,-0.549 1.249,-1.754 0.699,-2.69c-0.549,-0.935 -1.754,-1.249 -2.69,-0.699c-8.864,5.205 -16.095,-2.029 -16.095,-2.029c-0.766,-0.768 -2.012,-0.768 -2.779,-0.002c-0.768,0.767 -0.768,2.012 -0.002,2.78Z"/><path d="M39.046,59.456c-2.992,2.888 -3.475,5.727 -2.936,7.729c0.965,3.579 5.234,5.338 8.753,2.448c0.838,-0.688 0.96,-1.928 0.272,-2.766c-0.689,-0.838 -1.928,-0.96 -2.766,-0.272c-0.969,0.795 -2.198,0.552 -2.463,-0.433c-0.281,-1.042 0.312,-2.374 1.87,-3.878c0.78,-0.753 0.802,-1.998 0.049,-2.779c-0.753,-0.78 -1.999,-0.802 -2.779,-0.049Z"/><path d="M46.156,54.602c-0,-0 7.136,7.409 16.95,2.226c0.959,-0.506 1.326,-1.696 0.82,-2.656c-0.507,-0.959 -1.697,-1.326 -2.656,-0.82c-7.111,3.756 -12.298,-1.492 -12.298,-1.492c-0.757,-0.777 -2.002,-0.794 -2.779,-0.037c-0.777,0.756 -0.794,2.002 -0.037,2.779Z"/><path d="M20.908,51.392c0,-0 7.137,7.409 16.95,2.226c0.959,-0.507 1.327,-1.697 0.82,-2.656c-0.506,-0.959 -1.697,-1.326 -2.656,-0.82c-7.111,3.756 -12.297,-1.492 -12.297,-1.492c-0.757,-0.778 -2.003,-0.794 -2.78,-0.038c-0.777,0.757 -0.794,2.003 -0.037,2.78Z"/></g></svg>