<?xml version="1.0" encoding="UTF-8" standalone="no"?><!DOCTYPE svg PUBLIC "-//W3C//DTD SVG 1.1//EN" "http://www.w3.org/Graphics/SVG/1.1/DTD/svg11.dtd"><svg width="100%" height="100%" viewBox="0 0 101 101" version="1.1" xmlns="http://www.w3.org/2000/svg" xmlns:xlink="http://www.w3.org/1999/xlink" xml:space="preserve" xmlns:serif="http://www.serif.com/" style="fill-rule:evenodd;clip-rule:evenodd;stroke-linejoin:round;stroke-miterlimit:2;"><rect id="_54---pencil" serif:id="54 - pencil" x="0.857" y="0.83" width="100" height="100" style="fill:none;"/><g><g><path d="M81.902,11.71l-31.175,53.996c-0.245,0.424 -0.39,0.897 -0.427,1.385l-0.884,11.915c-0.024,0.325 0.122,0.636 0.382,0.826l0.183,0.104c0.291,0.124 0.629,0.094 0.895,-0.087l9.876,-6.723c0.405,-0.276 0.742,-0.639 0.986,-1.062l33.729,-58.421c0.804,-1.392 0.327,-3.172 -1.065,-3.976c-1.724,-0.995 -4.246,-2.451 -5.97,-3.446c-1.392,-0.804 -3.172,-0.327 -3.976,1.065l-2.554,4.424Zm-21.975,60.278l-0.234,-1.29c-0.008,-0.044 -0.034,-0.082 -0.071,-0.106c-0.037,-0.024 -0.083,-0.031 -0.126,-0.02l-0.902,0.229c-0.404,0.103 -0.833,0.04 -1.191,-0.175c-0.358,-0.216 -0.615,-0.565 -0.714,-0.97c0,-0 -0.211,-0.866 -0.211,-0.866c-0.01,-0.041 -0.036,-0.077 -0.073,-0.099c-0.036,-0.022 -0.08,-0.028 -0.121,-0.018c-0.305,0.078 -0.649,0.165 -0.954,0.243c-0.405,0.103 -0.834,0.04 -1.192,-0.175c-0.358,-0.216 -0.615,-0.565 -0.714,-0.97l-0.207,-0.848c-0.01,-0.042 -0.037,-0.078 -0.074,-0.1c-0.037,-0.022 -0.081,-0.027 -0.123,-0.016l-1.317,0.364c-0,0.008 -0.001,0.016 -0.002,0.024l-0.432,5.824l4.011,2.133l4.647,-3.164Zm25.974,-46.332l-25.339,43.889c0.258,0.225 0.438,0.53 0.507,0.869l25.589,-44.322l-0.757,-0.436Zm-26.079,43.532l25.37,-43.942l-2.481,-1.432l-25.326,43.865c0.224,0.208 0.384,0.477 0.458,0.778c-0,0 0.211,0.866 0.211,0.866c0.01,0.041 0.036,0.077 0.073,0.099c0.036,0.021 0.08,0.028 0.121,0.017l0.902,-0.229c0.222,-0.056 0.451,-0.063 0.672,-0.022Zm-3.164,-1.888l25.343,-43.896l-2.481,-1.432l-25.341,43.893c0.195,0.199 0.336,0.449 0.403,0.725c0,-0 0.207,0.848 0.207,0.848c0.01,0.041 0.036,0.077 0.073,0.099c0.036,0.021 0.08,0.028 0.121,0.017c0.305,-0.077 0.65,-0.165 0.955,-0.242c0.238,-0.061 0.484,-0.064 0.72,-0.012Zm-4.191,-1.798l0.179,-0.049c0.272,-0.075 0.557,-0.075 0.825,-0.002l25.34,-43.889l-0.731,-0.422l-25.613,44.362Zm38.527,-46.92l-8.578,-4.953l-3.634,6.294l8.578,4.953l3.634,-6.294Zm-9.355,1.567l4.106,2.37c0.196,0.113 0.447,0.046 0.56,-0.15c0.113,-0.196 0.045,-0.447 -0.15,-0.56l-4.106,-2.37c-0.196,-0.113 -0.447,-0.046 -0.56,0.15c-0.113,0.196 -0.046,0.446 0.15,0.56Zm0.625,-1.938l4.846,2.798c0.196,0.113 0.447,0.046 0.56,-0.15c0.113,-0.196 0.046,-0.447 -0.15,-0.56l-4.846,-2.798c-0.196,-0.113 -0.447,-0.046 -0.56,0.15c-0.113,0.196 -0.046,0.447 0.15,0.56Zm1.366,-1.51l4.105,2.37c0.196,0.113 0.447,0.046 0.56,-0.15c0.113,-0.196 0.046,-0.446 -0.15,-0.559l-4.105,-2.371c-0.196,-0.113 -0.447,-0.046 -0.56,0.15c-0.113,0.196 -0.046,0.447 0.15,0.56Z"/><path d="M48.074,81.277c-1.377,2.873 -4.327,6.184 -7.815,8.823c-2.201,1.665 -4.617,3.057 -6.954,3.938c-4.744,1.786 -9.186,1.443 -10.85,-3.355c-0.77,-2.253 -0.388,-4.29 0.664,-6.183c2.704,-4.865 9.661,-8.809 13.339,-13.063c2.106,-2.435 3.162,-4.973 2.006,-7.803c-1.989,-4.887 -9.665,-7.334 -17.071,-7.068c-4.171,0.15 -8.241,1.151 -11.145,3.005c-2.476,1.581 -4.115,3.778 -4.37,6.575l-0.001,0.006c-0.202,2.696 1.099,4.516 2.939,5.748c3.49,2.336 9.054,2.407 9.054,2.407c0.483,0 0.874,-0.391 0.874,-0.874c0,-0.482 -0.391,-0.873 -0.874,-0.873c0,-0 -5.017,0.075 -8.202,-1.962c-1.428,-0.914 -2.47,-2.277 -2.361,-4.337c0.175,-2.378 1.572,-4.236 3.644,-5.61c2.712,-1.799 6.552,-2.784 10.489,-2.98c6.966,-0.347 14.281,1.724 16.207,6.302c1.362,3.25 -0.686,6.058 -3.635,8.842c-3.831,3.619 -9.209,7.162 -11.52,11.338c-1.147,2.072 -1.562,4.298 -0.722,6.764c1.774,5.284 6.589,5.794 11.83,3.927c2.43,-0.866 4.945,-2.252 7.287,-3.878c3.799,-2.639 7.118,-5.937 8.741,-8.89c0.221,-0.428 0.051,-0.955 -0.377,-1.176c-0.429,-0.22 -0.956,-0.051 -1.177,0.377Z"/></g></g></svg>