<?xml version="1.0" encoding="UTF-8" standalone="no"?><!DOCTYPE svg PUBLIC "-//W3C//DTD SVG 1.1//EN" "http://www.w3.org/Graphics/SVG/1.1/DTD/svg11.dtd"><svg width="100%" height="100%" viewBox="0 0 101 101" version="1.1" xmlns="http://www.w3.org/2000/svg" xmlns:xlink="http://www.w3.org/1999/xlink" xml:space="preserve" xmlns:serif="http://www.serif.com/" style="fill-rule:evenodd;clip-rule:evenodd;stroke-linejoin:round;stroke-miterlimit:2;"><rect id="_99---brainstorm" serif:id="99 - brainstorm" x="0.685" y="0.213" width="100" height="100" style="fill:none;"/><g><path d="M21.165,35.504c-0.399,2.963 -1.33,5.83 -2.748,8.462c-2.692,5 -6.87,12.758 -9.039,16.786c-0.453,0.84 -0.431,1.857 0.059,2.677c0.489,0.82 1.374,1.322 2.329,1.322l8.117,0c0.517,0 0.936,0.419 0.936,0.936l0,18.618c0,2.983 1.222,5.835 3.38,7.894c2.159,2.059 5.066,3.143 8.046,3.002c19.762,-0.994 60.071,-8.133 60.071,-48.877c0,-15.239 -4.61,-24.845 -10.707,-30.903c-9.167,-9.108 -21.772,-10.208 -27.548,-10.208c-25.959,0 -31.656,21.069 -32.896,30.291l-0,0Zm1.846,0.249c1.173,-8.717 6.514,-28.677 31.05,-28.677c5.497,-0 17.511,0.998 26.235,9.667c5.83,5.793 10.157,15.008 10.157,29.581c0,39.404 -39.189,46.055 -58.299,47.016c-2.468,0.118 -4.879,-0.782 -6.669,-2.489c-1.79,-1.707 -2.803,-4.073 -2.803,-6.546l-0,-18.618c-0,-1.546 -1.253,-2.799 -2.799,-2.799l-8.117,0c-0.299,0 -0.576,-0.157 -0.73,-0.414c-0.153,-0.257 -0.16,-0.576 -0.019,-0.839c2.17,-4.027 6.348,-11.786 9.04,-16.786c1.524,-2.829 2.525,-5.911 2.954,-9.096l0,-0Z"/><path d="M40.746,21.808c0.556,-6.052 5.652,-10.798 11.848,-10.798c3.533,0 6.709,1.543 8.887,3.993c0.375,-0.055 0.759,-0.083 1.148,-0.083c3.953,0 7.239,2.877 7.877,6.65c2.492,1.034 4.245,3.49 4.245,6.357l0,-0c0,3.8 -3.08,6.88 -6.88,6.88l-23.98,0c-3.8,0 -6.881,-3.08 -6.881,-6.88l0,-0c0,-1.825 0.725,-3.575 2.015,-4.866c0.51,-0.509 1.092,-0.931 1.721,-1.253Zm1.812,1.281l-0,-0.18c-0,-5.539 4.497,-10.036 10.036,-10.036c3.363,0 6.343,1.659 8.164,4.201c0.59,-0.189 1.219,-0.291 1.871,-0.291c3.381,-0 6.126,2.745 6.126,6.126c0,0.026 0,0.052 -0,0.077c2.35,0.418 4.133,2.471 4.133,4.941l0,-0c0,2.771 -2.246,5.018 -5.017,5.018l-23.98,-0c-2.772,-0 -5.018,-2.247 -5.018,-5.018l-0,-0c-0,-1.331 0.528,-2.607 1.469,-3.548c0.62,-0.62 1.385,-1.061 2.216,-1.29Z"/><path d="M37.01,37.832c-4.036,-0 -7.312,3.276 -7.312,7.312c-0,4.036 3.276,7.313 7.312,7.313c4.036,-0 7.313,-3.277 7.313,-7.313c-0,-4.036 -3.277,-7.312 -7.313,-7.312Zm0,1.862c3.008,0 5.45,2.442 5.45,5.45c-0,3.008 -2.442,5.45 -5.45,5.45c-3.008,-0 -5.45,-2.442 -5.45,-5.45c0,-3.008 2.442,-5.45 5.45,-5.45Z"/><circle cx="38.873" cy="42.196" r="3.433"/></g></svg>