<?xml version="1.0" encoding="UTF-8" standalone="no"?><!DOCTYPE svg PUBLIC "-//W3C//DTD SVG 1.1//EN" "http://www.w3.org/Graphics/SVG/1.1/DTD/svg11.dtd"><svg width="100%" height="100%" viewBox="0 0 101 101" version="1.1" xmlns="http://www.w3.org/2000/svg" xmlns:xlink="http://www.w3.org/1999/xlink" xml:space="preserve" xmlns:serif="http://www.serif.com/" style="fill-rule:evenodd;clip-rule:evenodd;stroke-linejoin:round;stroke-miterlimit:2;"><rect id="_61---dazed-and-confused" serif:id="61 - dazed and confused" x="0.5" y="0.44" width="100" height="100" style="fill:none;"/><g><path d="M73.246,26.697c1.9,0.023 3.706,1.511 3.955,3.531c0.176,1.43 -0.483,2.938 -1.679,3.779c-1.256,0.884 -3.029,0.971 -4.384,0.155c-1.45,-0.872 -2.242,-2.701 -1.838,-4.382c0.285,-1.182 1.133,-2.217 2.246,-2.723c0.532,-0.241 1.108,-0.363 1.7,-0.36Zm-0.036,3.999c-0.028,0.002 -0.008,0.082 0.019,0.03c0.007,-0.014 -0.017,-0.03 -0.019,-0.03Z"/><path d="M28.717,13.733c1.481,0.015 2.922,0.898 3.586,2.255c0.63,1.285 0.513,2.903 -0.334,4.094c-0.879,1.235 -2.489,1.907 -4.012,1.625c-1.635,-0.304 -3.021,-1.703 -3.25,-3.418c-0.225,-1.682 0.714,-3.469 2.329,-4.199c0.526,-0.238 1.111,-0.358 1.681,-0.357Zm-0.026,4c-0.022,-0 0.043,0.09 0.021,0.015c-0.002,-0.008 -0.01,-0.015 -0.021,-0.015Z"/><path d="M42.566,41.077c0.092,0.024 0.186,0.041 0.276,0.072c0.809,0.272 1.395,1.092 1.361,1.972c-0.015,0.381 -0.14,0.756 -0.359,1.068c-0.202,0.29 -0.463,0.534 -0.694,0.808c-1.65,1.949 -3.078,4.108 -4.18,6.411c-1.397,2.92 -2.275,6.209 -1.651,9.329c0.162,0.808 0.415,1.607 0.781,2.338c0.419,0.84 1.155,1.524 1.995,1.994c0.908,0.509 1.994,0.686 3.033,0.369c1.211,-0.369 2.208,-1.233 3.038,-2.16c0.809,-0.902 1.491,-1.919 2.096,-2.965l0.161,-0.236c0.064,-0.07 0.123,-0.145 0.192,-0.211c0.551,-0.525 1.413,-0.692 2.123,-0.407c0.794,0.319 1.329,1.186 1.245,2.048c-0.046,0.486 -0.314,0.914 -0.58,1.35c-1.518,2.495 -3.429,4.822 -6.093,6.023c-1.922,0.868 -4.175,0.955 -6.167,0.158c-2.074,-0.83 -3.842,-2.457 -4.759,-4.467c-1.101,-2.412 -1.465,-5.125 -1.163,-7.803c0.511,-4.534 2.696,-8.785 5.377,-12.446c0.665,-0.909 1.36,-1.794 2.124,-2.62l0.023,-0.025l0.21,-0.193c0.078,-0.054 0.152,-0.114 0.234,-0.162c0.165,-0.097 0.342,-0.17 0.527,-0.217c0.247,-0.062 0.313,-0.051 0.566,-0.059c0.094,0.011 0.189,0.021 0.284,0.031Z"/><path d="M36.432,75.848c3.057,0.009 6.09,1.277 8.308,3.463c2.847,2.805 4.301,6.879 4.263,10.928c-0.011,1.221 -0.155,2.439 -0.421,3.634l-0.081,0.273c-0.106,0.23 -0.122,0.296 -0.276,0.499c-0.342,0.453 -0.887,0.751 -1.463,0.789c-0.254,0.017 -0.318,-0.006 -0.568,-0.043l-21.98,-4.914c-0.243,-0.072 -0.31,-0.078 -0.533,-0.202c-0.584,-0.323 -0.983,-0.952 -1.027,-1.62c-0.018,-0.281 -0.008,-0.336 0.066,-0.659c0.961,-4.169 3.451,-7.946 7.003,-10.167c1.99,-1.245 4.301,-1.975 6.667,-1.981c0.014,0 0.028,0 0.042,0Zm-0.036,4c-1.857,0.004 -3.676,0.693 -5.185,1.801c-1.837,1.349 -3.215,3.293 -4.028,5.391l-0.001,0.003l17.789,3.976c0.203,-2.779 -0.494,-5.675 -2.187,-7.892c-1.49,-1.952 -3.812,-3.253 -6.304,-3.279c-0.028,-0 -0.056,-0 -0.084,-0Z"/><path d="M68.364,11.48c3.972,0.007 7.942,1.532 10.911,4.196c2.993,2.684 4.928,6.492 5.34,10.508c0.374,3.651 -0.537,7.415 -2.52,10.5c-1.713,2.665 -4.219,4.821 -7.12,6.105c-2.944,1.304 -6.28,1.719 -9.447,1.162c-4.663,-0.819 -8.915,-3.753 -11.316,-7.87c-2.045,-3.507 -2.722,-7.797 -1.844,-11.762c0.88,-3.976 3.299,-7.596 6.649,-9.921c2.693,-1.869 5.95,-2.899 9.246,-2.918c0.034,0 0.068,0 0.101,0Zm-0.042,3.999c-2.494,0.007 -4.976,0.783 -7.024,2.204c-3.106,2.156 -5.127,5.795 -5.302,9.586c-0.138,2.977 0.846,6.005 2.732,8.335c2.304,2.846 5.917,4.583 9.576,4.593c3.319,0.009 6.614,-1.379 8.918,-3.769c2.485,-2.575 3.782,-6.248 3.414,-9.836c-0.307,-2.997 -1.744,-5.863 -3.976,-7.889c-2.23,-2.025 -5.203,-3.199 -8.224,-3.223c-0.038,-0.001 -0.076,-0.001 -0.114,-0.001Z"/><path d="M32.675,5.44c3.139,0.008 6.282,0.938 8.913,2.66c3.661,2.395 6.304,6.295 7.128,10.627c0.646,3.399 0.185,6.999 -1.305,10.113c-2.191,4.58 -6.57,8.023 -11.619,9.008c-3.135,0.612 -6.447,0.284 -9.393,-0.936c-3.68,-1.525 -6.762,-4.441 -8.491,-8.027c-1.83,-3.796 -2.115,-8.316 -0.754,-12.333c1.639,-4.841 5.633,-8.802 10.585,-10.361c1.562,-0.491 3.186,-0.742 4.831,-0.751c0.035,-0 0.07,-0 0.105,-0Zm-0.046,3.999c-3.077,0.008 -6.145,1.212 -8.408,3.325c-1.875,1.751 -3.192,4.094 -3.692,6.616c-0.648,3.267 0.083,6.782 2.011,9.519c1.814,2.574 4.637,4.42 7.732,5.024c3.087,0.602 6.394,-0.02 9.048,-1.728c2.972,-1.913 5.063,-5.127 5.562,-8.651c0.461,-3.254 -0.434,-6.68 -2.445,-9.286c-2.275,-2.949 -5.899,-4.786 -9.688,-4.818c-0.04,-0.001 -0.08,-0.001 -0.12,-0.001Z"/></g></svg>