<?xml version="1.0" encoding="UTF-8" standalone="no"?><!DOCTYPE svg PUBLIC "-//W3C//DTD SVG 1.1//EN" "http://www.w3.org/Graphics/SVG/1.1/DTD/svg11.dtd"><svg width="100%" height="100%" viewBox="0 0 100 100" version="1.1" xmlns="http://www.w3.org/2000/svg" xmlns:xlink="http://www.w3.org/1999/xlink" xml:space="preserve" xmlns:serif="http://www.serif.com/" style="fill-rule:evenodd;clip-rule:evenodd;stroke-linejoin:round;stroke-miterlimit:2;"><rect id="_98---robot" serif:id="98 - robot" x="0" y="0" width="100" height="100" style="fill:none;"/><g><path d="M23.206,57.677c-0.094,-0.193 -0.145,-0.408 -0.145,-0.63l-0,-25.108c-0,-14.878 12.061,-26.939 26.939,-26.939l0,0c14.878,0 26.939,12.061 26.939,26.939l0,25.108c0,0.222 -0.051,0.437 -0.145,0.63l-0,-0l-10.609,21.772c-0.241,0.494 -0.742,0.807 -1.292,0.807c-0.549,0 -1.051,-0.313 -1.291,-0.807l-6.829,-14.014c-4.511,0.673 -9.022,0.664 -13.535,-0.021l-6.84,14.035c-0.24,0.494 -0.742,0.807 -1.291,0.807c-0.55,0 -1.051,-0.313 -1.292,-0.807l-10.609,-21.772l0,-0Zm11.901,17.863l5.198,-10.667c-4.19,-0.907 -8.379,-2.396 -12.57,-4.461l7.372,15.128Zm37.143,-15.097c-4.18,2.076 -8.36,3.56 -12.541,4.458l5.184,10.639l7.357,-15.097Zm1.816,-28.504l-0,24.28c-16.044,9.141 -32.088,9.023 -48.132,-0.006c0,-2.997 0,-13.612 0,-24.274c0,-13.291 10.775,-24.066 24.066,-24.066l0,0c13.291,0 24.066,10.775 24.066,24.066Z"/><path d="M40.158,85.171l19.684,-0c0.793,-0 1.437,-0.644 1.437,-1.437c0,-0.793 -0.644,-1.436 -1.437,-1.436l-19.684,-0c-0.793,-0 -1.437,0.643 -1.437,1.436c-0,0.793 0.644,1.437 1.437,1.437Z"/><path d="M42.937,90.085l14.126,0c0.793,0 1.437,-0.643 1.437,-1.436c-0,-0.793 -0.644,-1.437 -1.437,-1.437l-14.126,0c-0.793,0 -1.437,0.644 -1.437,1.437c0,0.793 0.644,1.436 1.437,1.436Z"/><path d="M45.287,95l9.426,0c0.793,-0 1.436,-0.644 1.436,-1.437c0,-0.793 -0.643,-1.436 -1.436,-1.436l-9.426,-0c-0.793,-0 -1.436,0.643 -1.436,1.436c-0,0.793 0.643,1.437 1.436,1.437Z"/><circle cx="45.643" cy="32.794" r="4.166"/><circle cx="62.925" cy="32.794" r="4.166"/></g></svg>