<?xml version="1.0" encoding="UTF-8" standalone="no"?><!DOCTYPE svg PUBLIC "-//W3C//DTD SVG 1.1//EN" "http://www.w3.org/Graphics/SVG/1.1/DTD/svg11.dtd"><svg width="100%" height="100%" viewBox="0 0 100 100" version="1.1" xmlns="http://www.w3.org/2000/svg" xmlns:xlink="http://www.w3.org/1999/xlink" xml:space="preserve" xmlns:serif="http://www.serif.com/" style="fill-rule:evenodd;clip-rule:evenodd;stroke-linejoin:round;stroke-miterlimit:2;"><rect id="_19---ticket" serif:id="19 - ticket" x="0" y="0" width="100" height="100" style="fill:none;"/><g><g><path d="M67.907,11.587l-41.103,0c-3.164,0 -5.729,2.566 -5.729,5.73c-0,14.242 -0,51.124 -0,65.366c-0,3.164 2.565,5.73 5.729,5.73c11.077,-0 35.315,-0 46.392,-0c1.519,-0 2.977,-0.604 4.051,-1.679c1.075,-1.074 1.678,-2.531 1.678,-4.051l0,-53.188c0,-0.659 -0.152,-1.31 -0.444,-1.901c-1.252,-2.535 -4.845,-9.807 -6.726,-13.616c-0.723,-1.464 -2.215,-2.391 -3.848,-2.391Zm-37.397,1.5l0,73.826l-3.706,-0c-2.336,-0 -4.229,-1.894 -4.229,-4.23c-0,0 -0,-65.366 -0,-65.366c-0,-2.336 1.893,-4.23 4.229,-4.23l3.706,0Zm6.29,0l31.107,0c1.062,0 2.033,0.603 2.503,1.556l6.726,13.615c0.19,0.385 0.289,0.808 0.289,1.237l0,53.188c0,1.122 -0.445,2.198 -1.239,2.991c-0.793,0.793 -1.868,1.239 -2.99,1.239l-36.396,-0l0,-73.826Z"/></g><g><path d="M66.005,17.652c-0.121,0 -0.243,0.029 -0.354,0.088c-0.063,0.034 -0.123,0.078 -0.176,0.132c-0.019,0.018 -0.037,0.038 -0.053,0.058l-2.241,2.671c-0.266,0.317 -0.225,0.79 0.092,1.056c0.317,0.266 0.791,0.225 1.057,-0.092l0.925,-1.102l-0,5.861c-0,0.414 0.336,0.75 0.75,0.75c0.414,-0 0.75,-0.336 0.75,-0.75l-0,-5.861l0.925,1.102c0.266,0.317 0.739,0.358 1.056,0.092c0.318,-0.266 0.359,-0.739 0.093,-1.056l-2.241,-2.671c-0.017,-0.02 -0.034,-0.04 -0.053,-0.058c-0.053,-0.054 -0.113,-0.098 -0.177,-0.132c-0.11,-0.059 -0.232,-0.088 -0.353,-0.088Z"/></g></g></svg>