<?xml version="1.0" encoding="UTF-8" standalone="no"?><!DOCTYPE svg PUBLIC "-//W3C//DTD SVG 1.1//EN" "http://www.w3.org/Graphics/SVG/1.1/DTD/svg11.dtd"><svg width="100%" height="100%" viewBox="0 0 100 100" version="1.1" xmlns="http://www.w3.org/2000/svg" xmlns:xlink="http://www.w3.org/1999/xlink" xml:space="preserve" xmlns:serif="http://www.serif.com/" style="fill-rule:evenodd;clip-rule:evenodd;stroke-linejoin:round;stroke-miterlimit:2;"><rect id="_07---flower" serif:id="07 - flower" x="0" y="0" width="100" height="100" style="fill:none;"/><g><path d="M54.933,34.254c-2.884,2.764 -5.952,5.329 -9.183,7.677c-2.294,1.667 -5.067,3.681 -5.067,3.681c-3.315,-7.81 -7.044,-14.498 -10.662,-17.462c-3.564,-2.92 -8.269,-4.248 -12.715,-2.919c-4.276,1.278 -8.455,5.05 -10.939,12.694c-2.484,7.645 -1.32,13.153 1.388,16.7c2.816,3.689 7.403,5.38 12.002,5.113c3.863,-0.225 9.266,-2.426 15.116,-5.671c0.984,-0.546 1.34,-1.788 0.795,-2.773c-0.546,-0.984 -1.789,-1.34 -2.773,-0.794c-5.196,2.881 -9.944,4.966 -13.374,5.165c-3.251,0.189 -6.534,-0.909 -8.524,-3.515c-2.098,-2.749 -2.675,-7.04 -0.751,-12.964c1.925,-5.924 4.915,-9.056 8.228,-10.047c3.142,-0.939 6.443,0.103 8.962,2.166c2.424,1.986 4.823,5.85 7.113,10.591c1.738,3.596 3.229,7.307 4.463,11.106c0.877,2.696 1.936,5.956 1.936,5.956c-8.452,0.739 -15.965,2.219 -19.903,4.744c-3.878,2.487 -6.595,6.552 -6.705,11.191c-0.106,4.461 2.19,9.602 8.693,14.326c6.503,4.725 12.101,5.32 16.312,3.841c4.378,-1.539 7.404,-5.379 8.571,-9.836c0.98,-3.742 0.556,-9.561 -0.722,-16.128c-0.215,-1.105 -1.287,-1.827 -2.392,-1.612c-1.105,0.215 -1.827,1.286 -1.612,2.391c1.134,5.832 1.65,10.992 0.78,14.316c-0.825,3.15 -2.884,5.933 -5.978,7.02c-3.262,1.146 -7.522,0.369 -12.561,-3.292c-5.039,-3.661 -7.095,-7.472 -7.013,-10.929c0.078,-3.279 2.089,-6.097 4.83,-7.854c2.638,-1.692 7.054,-2.779 12.27,-3.493c3.958,-0.541 7.947,-0.813 11.942,-0.813c2.835,0 6.262,0 6.262,0c-1.909,8.267 -2.823,15.869 -1.638,20.394c1.167,4.457 4.193,8.297 8.571,9.836c4.211,1.479 9.809,0.884 16.312,-3.841c6.503,-4.724 8.799,-9.865 8.693,-14.326c-0.11,-4.639 -2.827,-8.704 -6.705,-11.191c-3.257,-2.089 -8.922,-3.483 -15.562,-4.297c-1.117,-0.137 -2.136,0.659 -2.273,1.776c-0.137,1.117 0.659,2.136 1.776,2.273c5.897,0.723 10.964,1.827 13.856,3.682c2.741,1.757 4.752,4.575 4.83,7.854c0.082,3.457 -1.974,7.268 -7.013,10.929c-5.039,3.661 -9.299,4.438 -12.561,3.292c-3.094,-1.087 -5.153,-3.87 -5.978,-7.02c-0.794,-3.032 -0.463,-7.567 0.471,-12.749c0.708,-3.931 1.682,-7.81 2.916,-11.608c0.877,-2.697 1.936,-5.957 1.936,-5.957c7.272,4.37 14.22,7.589 18.89,7.86c4.599,0.268 9.186,-1.424 12.002,-5.112c2.708,-3.547 3.872,-9.056 1.388,-16.7c-2.484,-7.645 -6.663,-11.417 -10.939,-12.695c-4.446,-1.329 -9.151,-0.001 -12.715,2.919c-2.993,2.452 -6.07,7.409 -8.896,13.472c-0.475,1.021 -0.033,2.235 0.987,2.711c1.021,0.475 2.235,0.033 2.711,-0.987c2.509,-5.385 5.125,-9.863 7.783,-12.04c2.519,-2.064 5.82,-3.105 8.962,-2.166c3.313,0.99 6.303,4.123 8.228,10.046c1.924,5.924 1.347,10.216 -0.751,12.964c-1.99,2.607 -5.273,3.705 -8.524,3.516c-3.131,-0.182 -7.347,-1.901 -11.992,-4.394c-3.516,-1.887 -6.9,-4.01 -10.128,-6.356c-2.294,-1.665 -5.065,-3.679 -5.065,-3.679c6.404,-5.566 11.612,-11.179 13.313,-15.536c1.675,-4.292 1.484,-9.177 -1.154,-12.995c-2.536,-3.672 -7.415,-6.481 -15.453,-6.481c-8.038,-0 -12.917,2.809 -15.453,6.481c-2.638,3.818 -2.829,8.703 -1.154,12.995c1.407,3.604 5.171,8.062 10.064,12.623c0.823,0.768 2.115,0.722 2.883,-0.101c0.767,-0.824 0.722,-2.115 -0.102,-2.883c-4.345,-4.051 -7.795,-7.922 -9.045,-11.123c-1.184,-3.033 -1.155,-6.494 0.71,-9.193c1.965,-2.845 5.868,-4.72 12.097,-4.72c6.229,0 10.132,1.875 12.097,4.72c1.865,2.699 1.894,6.16 0.71,9.193c-1.14,2.919 -4.073,6.395 -7.874,10.038Zm-4.933,9.631l7.815,5.678c0,0 -2.985,9.188 -2.985,9.188c0,-0 -9.66,-0 -9.66,-0c-0,-0 -2.985,-9.188 -2.985,-9.188l7.815,-5.678Z"/><g><circle cx="50.026" cy="27.847" r="2.901"/><circle cx="43.975" cy="20.846" r="4.1"/><circle cx="54.777" cy="18.936" r="5.347"/></g><g><path d="M75.837,43.735c0.495,1.523 -0.34,3.161 -1.862,3.656c-1.523,0.494 -3.161,-0.34 -3.655,-1.863c-0.495,-1.522 0.339,-3.16 1.862,-3.655c1.523,-0.495 3.16,0.34 3.655,1.862Z"/><path d="M81.765,35.447c0.699,2.152 -0.48,4.466 -2.632,5.166c-2.152,0.699 -4.467,-0.481 -5.166,-2.632c-0.699,-2.152 0.481,-4.467 2.632,-5.166c2.152,-0.699 4.467,0.48 5.166,2.632Z"/><path d="M88.106,44.744c0.912,2.807 -0.626,5.826 -3.433,6.738c-2.807,0.912 -5.826,-0.626 -6.738,-3.433c-0.912,-2.807 0.626,-5.826 3.433,-6.738c2.807,-0.912 5.826,0.626 6.738,3.433Z"/></g><g><path d="M65.941,74.088c-1.296,0.941 -3.111,0.653 -4.052,-0.642c-0.941,-1.295 -0.654,-3.111 0.642,-4.052c1.295,-0.941 3.11,-0.653 4.051,0.642c0.941,1.295 0.654,3.111 -0.641,4.052Z"/><path d="M75.655,77.164c-1.83,1.33 -4.396,0.924 -5.726,-0.907c-1.33,-1.83 -0.923,-4.396 0.907,-5.726c1.831,-1.33 4.396,-0.924 5.726,0.907c1.33,1.831 0.924,4.396 -0.907,5.726Z"/><path d="M68.773,86.068c-2.388,1.735 -5.735,1.205 -7.469,-1.183c-1.735,-2.388 -1.205,-5.735 1.183,-7.469c2.387,-1.735 5.734,-1.205 7.469,1.183c1.734,2.387 1.204,5.734 -1.183,7.469Z"/></g><g><path d="M24.179,43.685c0.495,-1.522 2.133,-2.357 3.655,-1.862c1.523,0.494 2.357,2.132 1.863,3.655c-0.495,1.523 -2.133,2.357 -3.655,1.862c-1.523,-0.494 -2.358,-2.132 -1.863,-3.655Z"/><path d="M14.511,46.906c0.7,-2.152 3.014,-3.331 5.166,-2.632c2.152,0.699 3.331,3.014 2.632,5.166c-0.699,2.152 -3.014,3.331 -5.165,2.632c-2.152,-0.699 -3.332,-3.014 -2.633,-5.166Z"/><path d="M14.846,35.658c0.912,-2.807 3.931,-4.345 6.738,-3.433c2.807,0.912 4.345,3.931 3.433,6.737c-0.912,2.807 -3.931,4.346 -6.738,3.434c-2.806,-0.912 -4.345,-3.932 -3.433,-6.738Z"/></g><g><path d="M34.017,74.057c-1.295,-0.941 -1.583,-2.757 -0.642,-4.052c0.941,-1.295 2.757,-1.583 4.052,-0.642c1.295,0.941 1.583,2.757 0.642,4.052c-0.941,1.295 -2.757,1.583 -4.052,0.642Z"/><path d="M34.093,84.247c-1.831,-1.33 -2.237,-3.896 -0.907,-5.727c1.33,-1.83 3.896,-2.237 5.726,-0.907c1.831,1.33 2.237,3.896 0.907,5.727c-1.33,1.83 -3.896,2.237 -5.726,0.907Z"/><path d="M23.498,80.452c-2.387,-1.734 -2.918,-5.081 -1.183,-7.469c1.735,-2.387 5.082,-2.918 7.469,-1.183c2.388,1.735 2.918,5.082 1.183,7.469c-1.734,2.388 -5.081,2.918 -7.469,1.183Z"/></g></g></svg>