<?xml version="1.0" encoding="UTF-8" standalone="no"?><!DOCTYPE svg PUBLIC "-//W3C//DTD SVG 1.1//EN" "http://www.w3.org/Graphics/SVG/1.1/DTD/svg11.dtd"><svg width="100%" height="100%" viewBox="0 0 100 100" version="1.1" xmlns="http://www.w3.org/2000/svg" xmlns:xlink="http://www.w3.org/1999/xlink" xml:space="preserve" xmlns:serif="http://www.serif.com/" style="fill-rule:evenodd;clip-rule:evenodd;stroke-linejoin:round;stroke-miterlimit:2;"><rect id="_92---coder" serif:id="92 - coder" x="0" y="0" width="100" height="100" style="fill:none;"/><g><path d="M38.565,69.338l4.319,4.318c-0,0 -4.319,4.319 -4.319,4.319c-0.863,0.863 -0.863,2.265 0,3.128c0.864,0.863 2.265,0.863 3.128,-0l5.883,-5.883c0.864,-0.863 0.864,-2.264 -0,-3.128l-5.883,-5.882c-0.863,-0.863 -2.264,-0.863 -3.128,-0c-0.863,0.863 -0.863,2.265 0,3.128Z"/><path d="M94.36,92.788l-0,-35.502c-0,-5.956 -4.828,-10.783 -10.784,-10.783l-67.151,-0c-5.956,-0 -10.784,4.827 -10.784,10.783l0,35.502c0,1.221 0.991,2.212 2.212,2.212c1.221,-0 2.212,-0.991 2.212,-2.212l0,-35.502c0,-3.512 2.847,-6.36 6.36,-6.36l67.151,0c3.512,0 6.36,2.848 6.36,6.36c-0,-0 -0,35.502 -0,35.502c-0,1.221 0.991,2.212 2.212,2.212c1.22,0 2.212,-0.991 2.212,-2.212Z"/><path d="M83.642,41.165l0,-2.523c0,-18.58 -15.062,-33.642 -33.642,-33.642l0,-0c-18.58,0 -33.641,15.062 -33.641,33.642l-0,2.523c-0,1.22 0.991,2.211 2.211,2.211c1.221,0 2.212,-0.991 2.212,-2.211l0,-2.523c0,-16.137 13.082,-29.218 29.218,-29.218c0,-0 0,-0 0,-0c16.137,-0 29.219,13.081 29.219,29.218l-0,2.523c-0,1.22 0.991,2.211 2.211,2.211c1.221,0 2.212,-0.991 2.212,-2.211Z"/><path d="M38.324,26.692c-4.605,0 -8.343,3.738 -8.343,8.342c0,4.604 3.738,8.342 8.343,8.342c4.604,0 8.342,-3.738 8.342,-8.342c-0,-4.604 -3.738,-8.342 -8.342,-8.342Zm-0,4.424c2.162,-0 3.918,1.756 3.918,3.918c0,2.163 -1.756,3.919 -3.918,3.919c-2.163,-0 -3.919,-1.756 -3.919,-3.919c0,-2.162 1.756,-3.918 3.919,-3.918Z"/><path d="M61.677,26.692c-4.604,0 -8.342,3.738 -8.342,8.342c0,4.604 3.738,8.342 8.342,8.342c4.604,0 8.342,-3.738 8.342,-8.342c0,-4.604 -3.738,-8.342 -8.342,-8.342Zm0,4.424c2.163,-0 3.919,1.756 3.919,3.918c-0,2.163 -1.756,3.919 -3.919,3.919c-2.162,-0 -3.918,-1.756 -3.918,-3.919c-0,-2.162 1.756,-3.918 3.918,-3.918Z"/><circle cx="61.185" cy="37.173" r="2.766"/><circle cx="38.816" cy="37.173" r="2.766"/><path d="M51.553,81.751l8.319,-0c1.22,-0 2.211,-0.991 2.211,-2.212c0,-1.221 -0.991,-2.212 -2.211,-2.212l-8.319,-0c-1.221,-0 -2.212,0.991 -2.212,2.212c-0,1.221 0.991,2.212 2.212,2.212Z"/></g></svg>